<svg xmlns="http://www.w3.org/2000/svg" xmlns:xlink="http://www.w3.org/1999/xlink" contentStyleType="text/css" data-diagram-type="DESCRIPTION" height="1584px" preserveAspectRatio="none" style="width:2888px;height:1584px;background:#FFFFFF;" version="1.1" viewBox="0 0 2888 1584" width="2888px" zoomAndPan="magnify"><title>Reference 04: Research turn dependency structure with data contracts</title><defs/><g><g class="title" data-source-line="2"><text fill="#000000" font-family="Arial" font-size="14" font-weight="bold" lengthAdjust="spacing" textLength="471.4814" x="1200.7593" y="23.1318">Reference 04: Research turn dependency structure with data contracts</text></g><!--cluster Java product boundary\nowns auth, quota, conversation, references--><g class="cluster" data-entity="Java product boundary.nowns auth. quota. conversation. references" data-source-line="20" data-uid="ent0006" id="cluster_Java product boundary.nowns auth. quota. conversation. references"><path d="M16.5,455.0986 L306.127,455.0986 A3.75,3.75 0 0 1 308.627,457.5986 L315.627,493.2959 L1147.5,493.2959 A2.5,2.5 0 0 1 1150,495.7959 L1150,555.5986 A2.5,2.5 0 0 1 1147.5,558.0986 L16.5,558.0986 A2.5,2.5 0 0 1 14,555.5986 L14,457.5986 A2.5,2.5 0 0 1 16.5,455.0986" fill="#DBEAFE" style="stroke:#000000;stroke-width:1.5;"/><line style="stroke:#000000;stroke-width:1.5;" x1="14" x2="315.627" y1="493.2959" y2="493.2959"/><text fill="#000000" font-family="Arial" font-size="14" font-weight="bold" lengthAdjust="spacing" textLength="154.8066" x="84.9102" y="470.2305">Java product boundary</text><text fill="#000000" font-family="Arial" font-size="14" font-weight="bold" lengthAdjust="spacing" textLength="288.627" x="18" y="486.3291">owns auth, quota, conversation, references</text></g><!--cluster Python harness boundary\nrequest-local agent runtime--><g class="cluster" data-entity="Python harness boundary.nrequest-local agent runtime" data-source-line="28" data-uid="ent0012" id="cluster_Python harness boundary.nrequest-local agent runtime"><path d="M1160.5,455.0986 L1345.0928,455.0986 A3.75,3.75 0 0 1 1347.5928,457.5986 L1354.5928,493.2959 L1585.5,493.2959 A2.5,2.5 0 0 1 1588,495.7959 L1588,1134.5986 A2.5,2.5 0 0 1 1585.5,1137.0986 L1160.5,1137.0986 A2.5,2.5 0 0 1 1158,1134.5986 L1158,457.5986 A2.5,2.5 0 0 1 1160.5,455.0986" fill="#DCFCE7" style="stroke:#000000;stroke-width:1.5;"/><line style="stroke:#000000;stroke-width:1.5;" x1="1158" x2="1354.5928" y1="493.2959" y2="493.2959"/><text fill="#000000" font-family="Arial" font-size="14" font-weight="bold" lengthAdjust="spacing" textLength="172.6963" x="1167.4482" y="470.2305">Python harness boundary</text><text fill="#000000" font-family="Arial" font-size="14" font-weight="bold" lengthAdjust="spacing" textLength="183.5928" x="1162" y="486.3291">request-local agent runtime</text></g><!--cluster Internal Java Corpus API\nnarrow data plane behind harness tools--><g class="cluster" data-entity="Internal Java Corpus API.nnarrow data plane behind harness tools" data-source-line="38" data-uid="ent0020" id="cluster_Internal Java Corpus API.nnarrow data plane behind harness tools"><path d="M1598.5,912.0986 L1863.9961,912.0986 A3.75,3.75 0 0 1 1866.4961,914.5986 L1873.4961,950.2959 L2495.5,950.2959 A2.5,2.5 0 0 1 2498,952.7959 L2498,1451.5986 A2.5,2.5 0 0 1 2495.5,1454.0986 L1598.5,1454.0986 A2.5,2.5 0 0 1 1596,1451.5986 L1596,914.5986 A2.5,2.5 0 0 1 1598.5,912.0986" fill="#FEF3C7" style="stroke:#000000;stroke-width:1.5;"/><line style="stroke:#000000;stroke-width:1.5;" x1="1596" x2="1873.4961" y1="950.2959" y2="950.2959"/><text fill="#000000" font-family="Arial" font-size="14" font-weight="bold" lengthAdjust="spacing" textLength="165.7168" x="1649.3896" y="927.2305">Internal Java Corpus API</text><text fill="#000000" font-family="Arial" font-size="14" font-weight="bold" lengthAdjust="spacing" textLength="264.4961" x="1600" y="943.3291">narrow data plane behind harness tools</text></g><!--cluster Stores--><g class="cluster" data-entity="Stores" data-source-line="49" data-uid="ent0029" id="cluster_Stores"><path d="M1426.5,1490.0986 L1471.0723,1490.0986 A3.75,3.75 0 0 1 1473.5723,1492.5986 L1480.5723,1512.1973 L2297.5,1512.1973 A2.5,2.5 0 0 1 2300,1514.6973 L2300,1574.5986 A2.5,2.5 0 0 1 2297.5,1577.0986 L1426.5,1577.0986 A2.5,2.5 0 0 1 1424,1574.5986 L1424,1492.5986 A2.5,2.5 0 0 1 1426.5,1490.0986" fill="#F8FAFC" style="stroke:#000000;stroke-width:1.5;"/><line style="stroke:#000000;stroke-width:1.5;" x1="1424" x2="1480.5723" y1="1512.1973" y2="1512.1973"/><text fill="#000000" font-family="Arial" font-size="14" font-weight="bold" lengthAdjust="spacing" textLength="43.5723" x="1428" y="1505.2305">Stores</text></g><!--entity Folio--><g class="entity" data-entity="Folio" data-source-line="15" data-uid="ent0002" id="entity_Folio"><rect fill="#EEF2FF" height="52.1973" rx="2.5" ry="2.5" style="stroke:#CBD5E1;stroke-width:0.5;" width="247.6162" x="841" y="41.0986"/><text fill="#000000" font-family="Arial" font-size="14" lengthAdjust="spacing" textLength="98.041" x="851" y="64.2305">Folio / Chat API</text><text fill="#000000" font-family="Arial" font-size="14" lengthAdjust="spacing" textLength="227.6162" x="851" y="80.3291">Q0 user message + source selection</text></g><!--entity Chat--><g class="entity" data-entity="Chat" data-source-line="16" data-uid="ent0003" id="entity_Chat"><rect fill="#DBEAFE" height="52.1973" rx="2.5" ry="2.5" style="stroke:#CBD5E1;stroke-width:0.5;" width="225.8438" x="852" y="147.0986"/><text fill="#000000" font-family="Arial" font-size="14" lengthAdjust="spacing" textLength="78.5996" x="862" y="170.2305">ChatHandler</text><text fill="#000000" font-family="Arial" font-size="14" lengthAdjust="spacing" textLength="205.8438" x="862" y="186.3291">Q1 userId + locked SourceScope</text></g><!--entity PRCS--><g class="entity" data-entity="PRCS" data-source-line="17" data-uid="ent0004" id="entity_PRCS"><rect fill="#DBEAFE" height="52.1973" rx="2.5" ry="2.5" style="stroke:#CBD5E1;stroke-width:0.5;" width="249.5713" x="472" y="253.0986"/><text fill="#000000" font-family="Arial" font-size="14" lengthAdjust="spacing" textLength="229.5713" x="482" y="276.2305">ProductReadingConversationService</text><text fill="#000000" font-family="Arial" font-size="14" lengthAdjust="spacing" textLength="151.7441" x="482" y="292.3291">Q2 ProductTurnRequest</text></g><!--entity Client--><g class="entity" data-entity="Client" data-source-line="18" data-uid="ent0005" id="entity_Client"><rect fill="#DBEAFE" height="52.1973" rx="2.5" ry="2.5" style="stroke:#CBD5E1;stroke-width:0.5;" width="211.4268" x="491.5" y="359.0986"/><text fill="#000000" font-family="Arial" font-size="14" lengthAdjust="spacing" textLength="191.4268" x="501.5" y="382.2305">PythonResearchHarnessClient</text><text fill="#000000" font-family="Arial" font-size="14" lengthAdjust="spacing" textLength="188.2822" x="501.5" y="398.3291">Q3 POST /v1/research/stream</text></g><g class="entity" data-entity="GMN63" data-source-line="90" data-uid="ent0064" id="entity_GMN63"><path d="M740,259.0986 L740,275.0986 L722.0068,279.0986 L740,283.0986 L740,298.9961 A0,0 0 0 0 740,298.9961 L1047.895,298.9961 A0,0 0 0 0 1047.895,298.9961 L1047.895,269.0986 L1037.895,259.0986 L740,259.0986 A0,0 0 0 0 740,259.0986" fill="#FEFFDD" style="stroke:#181818;stroke-width:0.5;"/><path d="M1037.895,259.0986 L1037.895,269.0986 L1047.895,269.0986 L1037.895,259.0986" fill="#FEFFDD" style="stroke:#181818;stroke-width:0.5;"/><text fill="#000000" font-family="Arial" font-size="13" lengthAdjust="spacing" textLength="285.4414" x="746" y="276.2925">The fixed paper scope is a Java product decision.</text><text fill="#000000" font-family="Arial" font-size="13" lengthAdjust="spacing" textLength="286.895" x="746" y="291.2412">Python can narrow within it, not expand beyond it.</text></g><g class="entity" data-entity="GMN66" data-source-line="95" data-uid="ent0067" id="entity_GMN66"><path d="M1598,822.0986 L1598,838.0986 L1579.5986,842.0986 L1598,846.0986 L1598,861.9961 A0,0 0 0 0 1598,861.9961 L2126.3047,861.9961 A0,0 0 0 0 2126.3047,861.9961 L2126.3047,832.0986 L2116.3047,822.0986 L1598,822.0986 A0,0 0 0 0 1598,822.0986" fill="#FEFFDD" style="stroke:#181818;stroke-width:0.5;"/><path d="M2116.3047,822.0986 L2116.3047,832.0986 L2126.3047,832.0986 L2116.3047,822.0986" fill="#FEFFDD" style="stroke:#181818;stroke-width:0.5;"/><text fill="#000000" font-family="Arial" font-size="13" lengthAdjust="spacing" textLength="68.6499" x="1604" y="839.2925">Tool ladder:</text><text fill="#000000" font-family="Arial" font-size="13" lengthAdjust="spacing" textLength="507.3047" x="1604" y="854.2412">paper candidate -&gt; location candidate -&gt; exact read -&gt; Evidence ID -&gt; accepted answer.</text></g><g class="entity" data-entity="GMN69" data-source-line="100" data-uid="ent0070" id="entity_GMN69"><path d="M2508,1311.0986 L2508,1350.9961 A0,0 0 0 0 2508,1350.9961 L2881.6567,1350.9961 A0,0 0 0 0 2881.6567,1350.9961 L2881.6567,1321.0986 L2871.6567,1311.0986 L2638.8116,1311.0986 L2025.8193,1305.055 L2630.8116,1311.0986 L2508,1311.0986 A0,0 0 0 0 2508,1311.0986" fill="#FEFFDD" style="stroke:#181818;stroke-width:0.5;"/><path d="M2871.6567,1311.0986 L2871.6567,1321.0986 L2881.6567,1321.0986 L2871.6567,1311.0986" fill="#FEFFDD" style="stroke:#181818;stroke-width:0.5;"/><text fill="#000000" font-family="Arial" font-size="13" lengthAdjust="spacing" textLength="203.0679" x="2514" y="1328.2925">Candidate previews are navigation.</text><text fill="#000000" font-family="Arial" font-size="13" lengthAdjust="spacing" textLength="352.6567" x="2514" y="1343.2412">Only read_locations creates citeable paper-content evidence.</text></g><!--entity Scope--><g class="entity" data-entity="Scope" data-source-line="21" data-uid="ent0007" id="entity_Scope"><rect fill="#F8FAFC" height="52.1973" rx="2.5" ry="2.5" style="stroke:#CBD5E1;stroke-width:0.5;" width="218.4336" x="924" y="498.0986"/><text fill="#000000" font-family="Arial" font-size="14" lengthAdjust="spacing" textLength="168.8682" x="934" y="521.2305">ConversationScopeService</text><text fill="#000000" font-family="Arial" font-size="14" lengthAdjust="spacing" textLength="198.4336" x="934" y="537.3291">source-set snapshot / paper IDs</text></g><!--entity Conversation--><g class="entity" data-entity="Conversation" data-source-line="22" data-uid="ent0008" id="entity_Conversation"><rect fill="#F8FAFC" height="52.1973" rx="2.5" ry="2.5" style="stroke:#CBD5E1;stroke-width:0.5;" width="243.7266" x="22" y="498.0986"/><text fill="#000000" font-family="Arial" font-size="14" lengthAdjust="spacing" textLength="129.1719" x="32" y="521.2305">ConversationService</text><text fill="#000000" font-family="Arial" font-size="14" lengthAdjust="spacing" textLength="223.7266" x="32" y="537.3291">history + durable assistant message</text></g><!--entity Rate--><g class="entity" data-entity="Rate" data-source-line="23" data-uid="ent0009" id="entity_Rate"><rect fill="#F8FAFC" height="52.1973" rx="2.5" ry="2.5" style="stroke:#CBD5E1;stroke-width:0.5;" width="139.8408" x="578" y="498.0986"/><text fill="#000000" font-family="Arial" font-size="14" lengthAdjust="spacing" textLength="105.8135" x="588" y="521.2305">RateLimitService</text><text fill="#000000" font-family="Arial" font-size="14" lengthAdjust="spacing" textLength="119.8408" x="588" y="537.3291">reserve LLM usage</text></g><!--entity Quota--><g class="entity" data-entity="Quota" data-source-line="24" data-uid="ent0010" id="entity_Quota"><rect fill="#F8FAFC" height="52.1973" rx="2.5" ry="2.5" style="stroke:#CBD5E1;stroke-width:0.5;" width="170.1855" x="736" y="498.0986"/><text fill="#000000" font-family="Arial" font-size="14" lengthAdjust="spacing" textLength="125.2891" x="746" y="521.2305">UsageQuotaService</text><text fill="#000000" font-family="Arial" font-size="14" lengthAdjust="spacing" textLength="150.1855" x="746" y="537.3291">settle / abort reservation</text></g><!--entity RefRegistry--><g class="entity" data-entity="RefRegistry" data-source-line="25" data-uid="ent0011" id="entity_RefRegistry"><rect fill="#F8FAFC" height="52.1973" rx="2.5" ry="2.5" style="stroke:#CBD5E1;stroke-width:0.5;" width="276.416" x="284" y="498.0986"/><text fill="#000000" font-family="Arial" font-size="14" lengthAdjust="spacing" textLength="198.4268" x="294" y="521.2305">ConversationReferenceRegistry</text><text fill="#000000" font-family="Arial" font-size="14" lengthAdjust="spacing" textLength="256.416" x="294" y="537.3291">citations -&gt; PaperConversationReference</text></g><!--entity RHS--><g class="entity" data-entity="RHS" data-source-line="29" data-uid="ent0013" id="entity_RHS"><rect fill="#F8FAFC" height="52.1973" rx="2.5" ry="2.5" style="stroke:#CBD5E1;stroke-width:0.5;" width="248.4092" x="1183" y="498.0986"/><text fill="#000000" font-family="Arial" font-size="14" lengthAdjust="spacing" textLength="158.7305" x="1193" y="521.2305">ResearchHarnessService</text><text fill="#000000" font-family="Arial" font-size="14" lengthAdjust="spacing" textLength="228.4092" x="1193" y="537.3291">Q4 validate request + CorpusReader</text></g><!--entity Live--><g class="entity" data-entity="Live" data-source-line="30" data-uid="ent0014" id="entity_Live"><rect fill="#F8FAFC" height="52.1973" rx="2.5" ry="2.5" style="stroke:#CBD5E1;stroke-width:0.5;" width="212.6162" x="1200.5" y="604.0986"/><text fill="#000000" font-family="Arial" font-size="14" lengthAdjust="spacing" textLength="167.3027" x="1210.5" y="627.2305">LiveResearchChatHarness</text><text fill="#000000" font-family="Arial" font-size="14" lengthAdjust="spacing" textLength="192.6162" x="1210.5" y="643.3291">Q5 ConversationState + run_id</text></g><!--entity Runtime--><g class="entity" data-entity="Runtime" data-source-line="31" data-uid="ent0015" id="entity_Runtime"><rect fill="#F8FAFC" height="52.1973" rx="2.5" ry="2.5" style="stroke:#CBD5E1;stroke-width:0.5;" width="232.4473" x="1191" y="710.0986"/><text fill="#000000" font-family="Arial" font-size="14" lengthAdjust="spacing" textLength="171.9717" x="1201" y="733.2305">AgentsSdkHarnessRuntime</text><text fill="#000000" font-family="Arial" font-size="14" lengthAdjust="spacing" textLength="212.4473" x="1201" y="749.3291">Q6 Agent, Session, Tools, Runner</text></g><!--entity Context--><g class="entity" data-entity="Context" data-source-line="32" data-uid="ent0016" id="entity_Context"><rect fill="#F8FAFC" height="52.1973" rx="2.5" ry="2.5" style="stroke:#CBD5E1;stroke-width:0.5;" width="211.8369" x="1184" y="1077.0986"/><text fill="#000000" font-family="Arial" font-size="14" lengthAdjust="spacing" textLength="133.8477" x="1194" y="1100.2305">ResearchRunContext</text><text fill="#000000" font-family="Arial" font-size="14" lengthAdjust="spacing" textLength="191.8369" x="1194" y="1116.3291">Q6a trace + authorization state</text></g><!--entity Tools--><g class="entity" data-entity="Tools" data-source-line="33" data-uid="ent0017" id="entity_Tools"><rect fill="#F8FAFC" height="52.1973" rx="2.5" ry="2.5" style="stroke:#CBD5E1;stroke-width:0.5;" width="197.4199" x="1382.5" y="816.0986"/><text fill="#000000" font-family="Arial" font-size="14" lengthAdjust="spacing" textLength="131.5166" x="1392.5" y="839.2305">ReadingCorpusTools</text><text fill="#000000" font-family="Arial" font-size="14" lengthAdjust="spacing" textLength="177.4199" x="1392.5" y="855.3291">Q7 model-visible paper tools</text></g><!--entity Session--><g class="entity" data-entity="Session" data-source-line="34" data-uid="ent0018" id="entity_Session"><rect fill="#F8FAFC" height="52.1973" rx="2.5" ry="2.5" style="stroke:#CBD5E1;stroke-width:0.5;" width="177.9512" x="1166" y="816.0986"/><text fill="#000000" font-family="Arial" font-size="14" lengthAdjust="spacing" textLength="148.6475" x="1176" y="839.2305">RequestBackedSession</text><text fill="#000000" font-family="Arial" font-size="14" lengthAdjust="spacing" textLength="157.9512" x="1176" y="855.3291">request-local SDK history</text></g><!--entity Submit--><g class="entity" data-entity="Submit" data-source-line="35" data-uid="ent0019" id="entity_Submit"><rect fill="#F8FAFC" height="52.1973" rx="2.5" ry="2.5" style="stroke:#CBD5E1;stroke-width:0.5;" width="176.4063" x="1258" y="955.0986"/><text fill="#000000" font-family="Arial" font-size="14" lengthAdjust="spacing" textLength="156.4063" x="1268" y="978.2305">submit_research_answer</text><text fill="#000000" font-family="Arial" font-size="14" lengthAdjust="spacing" textLength="142.4268" x="1268" y="994.3291">Q8 final validation gate</text></g><!--entity Gateway--><g class="entity" data-entity="Gateway" data-source-line="39" data-uid="ent0021" id="entity_Gateway"><rect fill="#F8FAFC" height="52.1973" rx="2.5" ry="2.5" style="stroke:#CBD5E1;stroke-width:0.5;" width="245.2988" x="1803.5" y="955.0986"/><text fill="#000000" font-family="Arial" font-size="14" lengthAdjust="spacing" textLength="129.9512" x="1813.5" y="978.2305">JavaCorpusGateway</text><text fill="#000000" font-family="Arial" font-size="14" lengthAdjust="spacing" textLength="225.2988" x="1813.5" y="994.3291">internal bearer token + cancel check</text></g><!--entity Controller--><g class="entity" data-entity="Controller" data-source-line="40" data-uid="ent0022" id="entity_Controller"><rect fill="#F8FAFC" height="84.3945" rx="2.5" ry="2.5" style="stroke:#CBD5E1;stroke-width:0.5;" width="172.5166" x="1839.5" y="1061.0986"/><text fill="#000000" font-family="Arial" font-size="14" lengthAdjust="spacing" textLength="152.5166" x="1849.5" y="1084.2305">InternalCorpusController</text><text fill="#000000" font-family="Arial" font-size="14" lengthAdjust="spacing" textLength="92.6064" x="1849.5" y="1100.3291">/papers/search</text><text fill="#000000" font-family="Arial" font-size="14" lengthAdjust="spacing" textLength="105.0547" x="1849.5" y="1116.4277">/locations/search</text><text fill="#000000" font-family="Arial" font-size="14" lengthAdjust="spacing" textLength="91.0547" x="1849.5" y="1132.5264">/locations/read</text></g><!--entity Corpus--><g class="entity" data-entity="Corpus" data-source-line="41" data-uid="ent0023" id="entity_Corpus"><rect fill="#F8FAFC" height="52.1973" rx="2.5" ry="2.5" style="stroke:#CBD5E1;stroke-width:0.5;" width="255.3887" x="1798.5" y="1199.0986"/><text fill="#000000" font-family="Arial" font-size="14" lengthAdjust="spacing" textLength="147.0547" x="1808.5" y="1222.2305">CorpusRetrievalService</text><text fill="#000000" font-family="Arial" font-size="14" lengthAdjust="spacing" textLength="235.3887" x="1808.5" y="1238.3291">scope checks + retrieval orchestration</text></g><!--entity PaperSvc--><g class="entity" data-entity="PaperSvc" data-source-line="42" data-uid="ent0024" id="entity_PaperSvc"><rect fill="#F8FAFC" height="52.1973" rx="2.5" ry="2.5" style="stroke:#CBD5E1;stroke-width:0.5;" width="181.8613" x="2308" y="1305.0986"/><text fill="#000000" font-family="Arial" font-size="14" lengthAdjust="spacing" textLength="84.041" x="2318" y="1328.2305">PaperService</text><text fill="#000000" font-family="Arial" font-size="14" lengthAdjust="spacing" textLength="161.8613" x="2318" y="1344.3291">accessible papers by user</text></g><!--entity Searchable--><g class="entity" data-entity="Searchable" data-source-line="43" data-uid="ent0025" id="entity_Searchable"><rect fill="#F8FAFC" height="52.1973" rx="2.5" ry="2.5" style="stroke:#CBD5E1;stroke-width:0.5;" width="233.5957" x="1604" y="1305.0986"/><text fill="#000000" font-family="Arial" font-size="14" lengthAdjust="spacing" textLength="164.1924" x="1614" y="1328.2305">PaperSearchabilityService</text><text fill="#000000" font-family="Arial" font-size="14" lengthAdjust="spacing" textLength="213.5957" x="1614" y="1344.3291">current READY + index availability</text></g><!--entity Retriever--><g class="entity" data-entity="Retriever" data-source-line="44" data-uid="ent0026" id="entity_Retriever"><rect fill="#F8FAFC" height="52.1973" rx="2.5" ry="2.5" style="stroke:#CBD5E1;stroke-width:0.5;" width="181.875" x="2108" y="1305.0986"/><text fill="#000000" font-family="Arial" font-size="14" lengthAdjust="spacing" textLength="161.875" x="2118" y="1328.2305">ReadingLocationRetriever</text><text fill="#000000" font-family="Arial" font-size="14" lengthAdjust="spacing" textLength="53.6963" x="2118" y="1344.3291">interface</text></g><!--entity QdrantRetriever--><g class="entity" data-entity="QdrantRetriever" data-source-line="45" data-uid="ent0027" id="entity_QdrantRetriever"><rect fill="#F8FAFC" height="52.1973" rx="2.5" ry="2.5" style="stroke:#CBD5E1;stroke-width:0.5;" width="224.6748" x="2085.5" y="1394.0986"/><text fill="#000000" font-family="Arial" font-size="14" lengthAdjust="spacing" textLength="204.6748" x="2095.5" y="1417.2305">QdrantReadingLocationRetriever</text><text fill="#000000" font-family="Arial" font-size="14" lengthAdjust="spacing" textLength="192.999" x="2095.5" y="1433.3291">sparse BM25 candidate search</text></g><!--entity Canonical--><g class="entity" data-entity="Canonical" data-source-line="46" data-uid="ent0028" id="entity_Canonical"><rect fill="#F8FAFC" height="52.1973" rx="2.5" ry="2.5" style="stroke:#CBD5E1;stroke-width:0.5;" width="234.0264" x="1856" y="1305.0986"/><text fill="#000000" font-family="Arial" font-size="14" lengthAdjust="spacing" textLength="214.0264" x="1866" y="1328.2305">CanonicalReadingLocationService</text><text fill="#000000" font-family="Arial" font-size="14" lengthAdjust="spacing" textLength="194.1543" x="1866" y="1344.3291">hydrate previews + exact reads</text></g><!--entity MySQL--><g class="entity" data-entity="MySQL" data-source-line="50" data-uid="ent0030" id="entity_MySQL"><rect fill="#F8FAFC" height="52.1973" rx="2.5" ry="2.5" style="stroke:#CBD5E1;stroke-width:0.5;" width="332.8398" x="1704.5" y="1517.0986"/><text fill="#000000" font-family="Arial" font-size="14" lengthAdjust="spacing" textLength="46.6758" x="1714.5" y="1540.2305">MySQL</text><text fill="#000000" font-family="Arial" font-size="14" lengthAdjust="spacing" textLength="312.8398" x="1714.5" y="1556.3291">papers, Reading Model, conversations, references</text></g><!--entity Qdrant--><g class="entity" data-entity="Qdrant" data-source-line="51" data-uid="ent0031" id="entity_Qdrant"><rect fill="#F8FAFC" height="52.1973" rx="2.5" ry="2.5" style="stroke:#CBD5E1;stroke-width:0.5;" width="236.3711" x="2056" y="1517.0986"/><text fill="#000000" font-family="Arial" font-size="14" lengthAdjust="spacing" textLength="42.7998" x="2066" y="1540.2305">Qdrant</text><text fill="#000000" font-family="Arial" font-size="14" lengthAdjust="spacing" textLength="216.3711" x="2066" y="1556.3291">rebuildable sparse candidate index</text></g><!--entity Provider--><g class="entity" data-entity="Provider" data-source-line="52" data-uid="ent0032" id="entity_Provider"><rect fill="#F8FAFC" height="52.1973" rx="2.5" ry="2.5" style="stroke:#CBD5E1;stroke-width:0.5;" width="254.2334" x="1432" y="1517.0986"/><text fill="#000000" font-family="Arial" font-size="14" lengthAdjust="spacing" textLength="94.1514" x="1442" y="1540.2305">Model Provider</text><text fill="#000000" font-family="Arial" font-size="14" lengthAdjust="spacing" textLength="234.2334" x="1442" y="1556.3291">Agents SDK chat/responses transport</text></g><g class="link" data-entity-1="Folio" data-entity-2="Chat" data-uid="lnk33" id="link_Folio_Chat"><polygon fill="#334155" points="965,146.7945,969,137.7945,965,141.7945,961,137.7945,965,146.7945" style="stroke:#334155;stroke-width:1;"/><path d="M965,93.2741 C965,109.5053 965,124.5381 965,140.7945" fill="none" style="stroke:#334155;stroke-width:1;"/><text fill="#000000" font-family="Arial" font-size="13" lengthAdjust="spacing" textLength="17.3418" x="967" y="125.2925">Q0</text></g><g class="link" data-entity-1="Chat" data-entity-2="Scope" data-uid="lnk34" id="link_Chat_Scope"><polygon fill="#334155" points="1068.4971,498.0516,1077.95,495.2872,1072.3125,494.8201,1072.7797,489.1825,1068.4971,498.0516" style="stroke:#334155;stroke-width:1;"/><path d="M1003.6872,199.3382 C1022.2036,213.2038 1043.2762,231.8879 1057,253.0986 C1101.3085,321.5793 1097.3242,348.3737 1109,429.0986 C1110.1452,437.0162 1112.0615,439.7076 1109,447.0986 C1100.6453,467.2687 1088.6311,480.999 1073.0756,494.1738" fill="none" style="stroke:#334155;stroke-width:1;"/><text fill="#000000" font-family="Arial" font-size="13" lengthAdjust="spacing" textLength="171.9771" x="1099" y="337.2925">Q1 compute locked paper IDs</text></g><g class="link" data-entity-1="Chat" data-entity-2="PRCS" data-uid="lnk35" id="link_Chat_PRCS"><polygon fill="#334155" points="685.4817,253.0929,695.2303,254.4946,690.2932,251.7332,693.0546,246.7961,685.4817,253.0929" style="stroke:#334155;stroke-width:1;"/><path d="M876.3865,199.1416 C818.5383,215.49 749.0774,235.1202 691.2555,251.4612" fill="none" style="stroke:#334155;stroke-width:1;"/><text fill="#000000" font-family="Arial" font-size="13" lengthAdjust="spacing" textLength="85.9663" x="806" y="231.2925">Q2 runTurn(...)</text></g><g class="link" data-entity-1="PRCS" data-entity-2="Conversation" data-uid="lnk36" id="link_PRCS_Conversation"><polygon fill="#334155" points="148.2006,497.9215,153.9241,489.9064,149.2032,493.023,146.0866,488.3022,148.2006,497.9215" style="stroke:#334155;stroke-width:1;"/><path d="M471.6747,294.0135 C377.2343,306.7165 257.6337,328.2416 219,359.0986 C174.8441,394.3662 156.873,455.5531 149.4038,492.0433" fill="none" style="stroke:#334155;stroke-width:1;"/><text fill="#000000" font-family="Arial" font-size="13" lengthAdjust="spacing" textLength="259.7334" x="221" y="390.2925">compact history + previous research memory</text></g><g class="link" data-entity-1="PRCS" data-entity-2="Client" data-uid="lnk37" id="link_PRCS_Client"><polygon fill="#334155" points="597,358.7945,601,349.7945,597,353.7945,593,349.7945,597,358.7945" style="stroke:#334155;stroke-width:1;"/><path d="M597,305.2741 C597,321.5053 597,336.5381 597,352.7945" fill="none" style="stroke:#334155;stroke-width:1;"/><text fill="#000000" font-family="Arial" font-size="13" lengthAdjust="spacing" textLength="119.9517" x="599" y="337.2925">ProductTurnRequest</text></g><g class="link" data-entity-1="Client" data-entity-2="Rate" data-uid="lnk38" id="link_Client_Rate"><polygon fill="#334155" points="626.1717,497.9049,623.8841,488.3254,623.1353,493.9325,617.5282,493.1837,626.1717,497.9049" style="stroke:#334155;stroke-width:1;"/><path d="M594.2857,411.2294 C593.8646,422.4361 594.4728,435.6616 598,447.0986 C603.7251,465.6623 611.8475,479.1651 622.528,493.138" fill="none" style="stroke:#334155;stroke-width:1;"/><text fill="#000000" font-family="Arial" font-size="13" lengthAdjust="spacing" textLength="197.2725" x="600" y="443.2925">reserve prompt/completion budget</text></g><g class="link" data-entity-1="Client" data-entity-2="RHS" data-uid="lnk39" id="link_Client_RHS"><polygon fill="#334155" points="1260.0763,498.0268,1253.8032,490.4342,1255.6006,495.7979,1250.2369,497.5953,1260.0763,498.0268" style="stroke:#334155;stroke-width:1;"/><path d="M702.5562,389.6664 C815.9962,395.6842 1000.6733,411.8288 1154,455.0986 C1190.9272,465.5197 1225.0804,480.5984 1254.7054,495.3521" fill="none" style="stroke:#334155;stroke-width:1;"/><text fill="#000000" font-family="Arial" font-size="13" lengthAdjust="spacing" textLength="117.7427" x="1113" y="443.2925">Q3 NDJSON stream</text></g><g class="link" data-entity-1="RHS" data-entity-2="Gateway" data-uid="lnk40" id="link_RHS_Gateway"><polygon fill="#334155" points="2042.6717,955.0074,2052.4877,955.8109,2047.3912,953.3563,2049.8459,948.2597,2042.6717,955.0074" style="stroke:#334155;stroke-width:1;"/><path d="M1431.0682,527.7743 C1666.3306,534.5108 2154,557.1519 2154,629.0986 C2154,629.0986 2154,629.0986 2154,843.0986 C2154,901.2849 2104.4307,933.4007 2048.3351,953.026" fill="none" style="stroke:#334155;stroke-width:1;"/><text fill="#000000" font-family="Arial" font-size="13" lengthAdjust="spacing" textLength="284.0005" x="2156" y="741.2925">Q4 reader(request_id, user_id, scope_paper_ids)</text></g><g class="link" data-entity-1="RHS" data-entity-2="Live" data-uid="lnk41" id="link_RHS_Live"><polygon fill="#334155" points="1307,603.7945,1311,594.7945,1307,598.7945,1303,594.7945,1307,603.7945" style="stroke:#334155;stroke-width:1;"/><path d="M1307,550.2741 C1307,566.5053 1307,581.5381 1307,597.7945" fill="none" style="stroke:#334155;stroke-width:1;"/><text fill="#000000" font-family="Arial" font-size="13" lengthAdjust="spacing" textLength="252.9033" x="1309" y="582.2925">Q5 run_turn(dataset shells, state, message)</text></g><g class="link" data-entity-1="Live" data-entity-2="Runtime" data-uid="lnk42" id="link_Live_Runtime"><polygon fill="#334155" points="1307,709.7945,1311,700.7945,1307,704.7945,1303,700.7945,1307,709.7945" style="stroke:#334155;stroke-width:1;"/><path d="M1307,656.2741 C1307,672.5053 1307,687.5381 1307,703.7945" fill="none" style="stroke:#334155;stroke-width:1;"/><text fill="#000000" font-family="Arial" font-size="13" lengthAdjust="spacing" textLength="112.7344" x="1309" y="688.2925">TurnExecutionInput</text></g><g class="link" data-entity-1="Runtime" data-entity-2="Context" data-uid="lnk43" id="link_Runtime_Context"><polygon fill="#334155" points="1275.7145,1076.8267,1275.1158,1066.9961,1273.4098,1072.3895,1268.0163,1070.6835,1275.7145,1076.8267" style="stroke:#334155;stroke-width:1;"/><path d="M1329.0792,762.3115 C1351.1924,790.7247 1378.5538,836.9952 1353,868.0986 C1326.8282,899.9544 1294.7907,861.1081 1262,886.0986 C1251.7245,893.9298 1251.9683,899.5247 1249,912.0986 C1239.2993,953.1914 1240.4581,965.7495 1249,1007.0986 C1254.1242,1031.9034 1263.2759,1052.8788 1272.9489,1071.5021" fill="none" style="stroke:#334155;stroke-width:1;"/><text fill="#000000" font-family="Arial" font-size="13" lengthAdjust="spacing" textLength="152.4834" x="1264" y="900.2925">create one per Runner.run</text></g><g class="link" data-entity-1="Runtime" data-entity-2="Session" data-uid="lnk44" id="link_Runtime_Session"><polygon fill="#334155" points="1267.6521,815.7945,1275.2547,809.5335,1269.8881,811.3224,1268.0993,805.9558,1267.6521,815.7945" style="stroke:#334155;stroke-width:1;"/><path d="M1294.4123,762.2741 C1286.2967,778.5053 1278.4636,794.1715 1270.3353,810.4279" fill="none" style="stroke:#334155;stroke-width:1;"/></g><g class="link" data-entity-1="Runtime" data-entity-2="Provider" data-uid="lnk45" id="link_Runtime_Provider"><polygon fill="#334155" points="1431.8295,1530.229,1423.383,1525.1637,1426.8666,1529.6207,1422.4097,1533.1043,1431.8295,1530.229" style="stroke:#334155;stroke-width:1;"/><path d="M1206.7388,762.1724 C1170.3477,777.7844 1138,802.5138 1138,841.0986 C1138,841.0986 1138,841.0986 1138,1421.0986 C1138,1482.9361 1301.9381,1514.3079 1425.8741,1529.499" fill="none" style="stroke:#334155;stroke-width:1;"/><text fill="#000000" font-family="Arial" font-size="13" lengthAdjust="spacing" textLength="88.8862" x="1140" y="1177.2925">model-tool loop</text></g><g class="link" data-entity-1="Runtime" data-entity-2="Tools" data-uid="lnk46" id="link_Runtime_Tools"><polygon fill="#334155" points="1438.9661,815.9749,1433.293,807.9241,1434.6743,813.4097,1429.1887,814.791,1438.9661,815.9749" style="stroke:#334155;stroke-width:1;"/><path d="M1349.1205,762.2741 C1376.3771,778.5654 1406.5766,796.6157 1433.816,812.8967" fill="none" style="stroke:#334155;stroke-width:1;"/><text fill="#000000" font-family="Arial" font-size="13" lengthAdjust="spacing" textLength="192.937" x="1407" y="794.2925">serialized FunctionTool execution</text></g><g class="link" data-entity-1="Tools" data-entity-2="Submit" data-uid="lnk47" id="link_Tools_Submit"><polygon fill="#334155" points="1371.0613,954.6661,1380.2274,951.063,1374.5707,951.1046,1374.5291,945.4479,1371.0613,954.6661" style="stroke:#334155;stroke-width:1;"/><path d="M1456.2389,868.2265 C1432.0328,892.7913 1399.5811,925.7238 1375.2726,950.3924" fill="none" style="stroke:#334155;stroke-width:1;"/><text fill="#000000" font-family="Arial" font-size="13" lengthAdjust="spacing" textLength="194.3716" x="1440" y="900.2925">final answer must be sole tool call</text></g><g class="link" data-entity-1="Tools" data-entity-2="Gateway" data-uid="lnk48" id="link_Tools_Gateway"><polygon fill="#334155" points="1853.4569,955.0674,1846.2238,948.3829,1848.7231,953.4577,1843.6483,955.957,1853.4569,955.0674" style="stroke:#334155;stroke-width:1;"/><path d="M1577.0853,868.1961 C1597.8898,873.8778 1619.7278,880.0307 1640,886.0986 C1713.1036,907.9802 1790.1662,933.5456 1847.7763,953.1358" fill="none" style="stroke:#334155;stroke-width:1;"/><text fill="#000000" font-family="Arial" font-size="13" lengthAdjust="spacing" textLength="196.5425" x="1698" y="900.2925">search / identity / locations / reads</text></g><g class="link" data-entity-1="Gateway" data-entity-2="Controller" data-uid="lnk49" id="link_Gateway_Controller"><polygon fill="#334155" points="1926,1060.9182,1930,1051.9182,1926,1055.9182,1922,1051.9182,1926,1060.9182" style="stroke:#334155;stroke-width:1;"/><path d="M1926,1007.2546 C1926,1022.7867 1926,1037.0862 1926,1054.9182" fill="none" style="stroke:#334155;stroke-width:1;"/><text fill="#000000" font-family="Arial" font-size="13" lengthAdjust="spacing" textLength="112.7217" x="1928" y="1039.2925">internal Corpus API</text></g><g class="link" data-entity-1="Controller" data-entity-2="Corpus" data-uid="lnk50" id="link_Controller_Corpus"><polygon fill="#334155" points="1926,1198.8353,1930,1189.8353,1926,1193.8353,1922,1189.8353,1926,1198.8353" style="stroke:#334155;stroke-width:1;"/><path d="M1926,1145.3958 C1926,1163.1585 1926,1177.351 1926,1192.8353" fill="none" style="stroke:#334155;stroke-width:1;"/></g><g class="link" data-entity-1="Corpus" data-entity-2="PaperSvc" data-uid="lnk51" id="link_Corpus_PaperSvc"><polygon fill="#334155" points="2369.8059,1304.9472,2365.1429,1296.2721,2365.854,1301.8841,2360.242,1302.5953,2369.8059,1304.9472" style="stroke:#334155;stroke-width:1;"/><path d="M2053.9075,1233.863 C2146.6644,1240.7314 2263.4931,1252.2947 2309,1269.0986 C2331.1339,1277.2718 2348.368,1288.3313 2365.0636,1301.2715" fill="none" style="stroke:#334155;stroke-width:1;"/><text fill="#000000" font-family="Arial" font-size="13" lengthAdjust="spacing" textLength="155.7271" x="2345" y="1283.2925">user + scope paper access</text></g><g class="link" data-entity-1="Corpus" data-entity-2="Searchable" data-uid="lnk52" id="link_Corpus_Searchable"><polygon fill="#334155" points="1727.8318,1304.8727,1734.7033,1297.817,1729.5649,1300.1826,1727.1993,1295.0441,1727.8318,1304.8727" style="stroke:#334155;stroke-width:1;"/><path d="M1798.3547,1243.3926 C1781.28,1249.5914 1764.8962,1257.9225 1751,1269.0986 C1739.7803,1278.1222 1734.5207,1286.7709 1729.9115,1299.2446" fill="none" style="stroke:#334155;stroke-width:1;"/><text fill="#000000" font-family="Arial" font-size="13" lengthAdjust="spacing" textLength="152.4644" x="1753" y="1283.2925">current READY/index gate</text></g><g class="link" data-entity-1="Corpus" data-entity-2="Retriever" data-uid="lnk53" id="link_Corpus_Retriever"><polygon fill="#334155" points="2185.6633,1305.0938,2184.2221,1295.351,2182.9859,1300.8711,2177.4657,1299.6349,2185.6633,1305.0938" style="stroke:#334155;stroke-width:1;"/><path d="M2053.6154,1233.9492 C2087.4273,1240.2938 2122.653,1251.0588 2152,1269.0986 C2166.1229,1277.7801 2174.3784,1287.2959 2182.4504,1300.0265" fill="none" style="stroke:#334155;stroke-width:1;"/><text fill="#000000" font-family="Arial" font-size="13" lengthAdjust="spacing" textLength="130.0952" x="2175" y="1283.2925">find_reading_locations</text></g><g class="link" data-entity-1="Retriever" data-entity-2="QdrantRetriever" data-uid="lnk54" id="link_Retriever_QdrantRetriever"><polygon fill="none" points="2198.7108,1357.2626,2192.5043,1375.1925,2204.5035,1375.3304,2198.7108,1357.2626" style="stroke:#334155;stroke-width:1;"/><path d="M2198.5039,1375.2614 C2198.3712,1386.8039 2198.4212,1382.4557 2198.2886,1393.9912" fill="none" style="stroke:#334155;stroke-width:1;stroke-dasharray:7,7;"/></g><g class="link" data-entity-1="QdrantRetriever" data-entity-2="Qdrant" data-uid="lnk55" id="link_QdrantRetriever_Qdrant"><polygon fill="#334155" points="2178.9664,1517.0595,2184.641,1509.0097,2179.9392,1512.155,2176.7939,1507.4532,2178.9664,1517.0595" style="stroke:#334155;stroke-width:1;"/><path d="M2193.0272,1446.1699 C2188.9082,1466.9365 2184.251,1490.4164 2180.1338,1511.1741" fill="none" style="stroke:#334155;stroke-width:1;"/><text fill="#000000" font-family="Arial" font-size="13" lengthAdjust="spacing" textLength="209.2061" x="2191" y="1478.2925">sparse query + scoped payload filter</text></g><g class="link" data-entity-1="Corpus" data-entity-2="Canonical" data-uid="lnk56" id="link_Corpus_Canonical"><polygon fill="#334155" points="1928.2663,1304.998,1924.2403,1296.0096,1924.5453,1301.6582,1918.8967,1301.9632,1928.2663,1304.998" style="stroke:#334155;stroke-width:1;"/><path d="M1913.9682,1251.1604 C1910.2233,1262.6018 1908.3732,1276.0351 1914,1287.0986 C1917.4475,1293.8772 1918.0548,1295.8326 1923.8011,1300.9903" fill="none" style="stroke:#334155;stroke-width:1;"/><text fill="#000000" font-family="Arial" font-size="13" lengthAdjust="spacing" textLength="234.127" x="1916" y="1283.2925">hydrate preview / read exact location_ref</text></g><g class="link" data-entity-1="Canonical" data-entity-2="MySQL" data-uid="lnk57" id="link_Canonical_MySQL"><polygon fill="#334155" points="1866.1024,1516.8788,1868.722,1507.3847,1865.3602,1511.9342,1860.8107,1508.5723,1866.1024,1516.8788" style="stroke:#334155;stroke-width:1;"/><path d="M1917.3812,1357.3992 C1902.783,1366.8002 1888.7044,1378.958 1880,1394.0986 C1857.9965,1432.3718 1860.5444,1479.8531 1865.2117,1510.9453" fill="none" style="stroke:#334155;stroke-width:1;"/><text fill="#000000" font-family="Arial" font-size="13" lengthAdjust="spacing" textLength="192.2388" x="1882" y="1425.2925">canonical Reading Model content</text></g><g class="link" data-entity-1="PaperSvc" data-entity-2="MySQL" data-uid="lnk58" id="link_PaperSvc_MySQL"><polygon fill="#334155" points="1940.2576,1517.0392,1950.0527,1518.0666,1945.0136,1515.4962,1947.584,1510.4571,1940.2576,1517.0392" style="stroke:#334155;stroke-width:1;"/><path d="M2405.942,1357.3477 C2413.5169,1391.1241 2420.5098,1450.4244 2387,1482.0986 C2373.2691,1495.0774 2065.6664,1487.1742 2047,1490.0986 C2011.1158,1495.7205 1977.9968,1504.7956 1945.9648,1515.1876" fill="none" style="stroke:#334155;stroke-width:1;"/></g><g class="link" data-entity-1="Submit" data-entity-2="Context" data-uid="lnk59" id="link_Submit_Context"><polygon fill="#334155" points="1301.724,1076.9758,1309.1547,1070.5117,1303.8384,1072.4449,1301.9052,1067.1286,1301.724,1076.9758" style="stroke:#334155;stroke-width:1;"/><path d="M1334.2606,1007.2546 C1324.703,1027.735 1313.8147,1051.0672 1304.2613,1071.5387" fill="none" style="stroke:#334155;stroke-width:1;"/><text fill="#000000" font-family="Arial" font-size="13" lengthAdjust="spacing" textLength="217.8706" x="1327" y="1039.2925">known Evidence IDs + coverage state</text></g><g class="link" data-entity-1="Client" data-entity-2="Quota" data-uid="lnk60" id="link_Client_Quota"><polygon fill="#334155" points="822.0661,497.9912,825.8419,488.8949,821.9422,492.9928,817.8444,489.0931,822.0661,497.9912" style="stroke:#334155;stroke-width:1;"/><path d="M702.6779,398.1778 C743.8413,404.9682 784.5956,414.9818 799,429.0986 C817.1949,446.9303 821.3906,470.7273 821.9175,491.9931" fill="none" style="stroke:#334155;stroke-width:1;"/><text fill="#000000" font-family="Arial" font-size="13" lengthAdjust="spacing" textLength="139.4707" x="813" y="443.2925">settle actual total tokens</text></g><g class="link" data-entity-1="Client" data-entity-2="RefRegistry" data-uid="lnk61" id="link_Client_RefRegistry"><polygon fill="#334155" points="407.2787,498.0984,406.9476,488.2551,405.0956,493.6002,399.7505,491.7482,407.2787,498.0984" style="stroke:#334155;stroke-width:1;"/><path d="M491.275,397.8205 C452.7662,404.4481 415.7564,414.4346 404,429.0986 C388.4097,448.5446 394.6493,472.0768 404.6589,492.7006" fill="none" style="stroke:#334155;stroke-width:1;"/><text fill="#000000" font-family="Arial" font-size="13" lengthAdjust="spacing" textLength="183.8979" x="406" y="443.2925">cited evidence -&gt; persistent refs</text></g><g class="link" data-entity-1="Client" data-entity-2="Conversation" data-uid="lnk62" id="link_Client_Conversation"><polygon fill="#334155" points="160.5104,497.8936,169.0271,492.9473,163.4416,493.8429,162.546,488.2574,160.5104,497.8936" style="stroke:#334155;stroke-width:1;"/><path d="M491.2065,401.7027 C467.4733,404.9954 442.3953,408.3126 419,411.0986 C378.2042,415.9568 272.0018,411.2446 235,429.0986 C203.2917,444.3984 180.1377,470.77 164.0278,493.0328" fill="none" style="stroke:#334155;stroke-width:1;"/><text fill="#000000" font-family="Arial" font-size="13" lengthAdjust="spacing" textLength="154.6416" x="237" y="443.2925">durable assistant message</text></g><!--SRC=[VLZRRXit47tVhs2TbmInfJYEso8e2ZYorBXr4jjA7me4CAXTIYAy8ZSaLxPw-VUU6N9lgjAdMEJCuLpFpEQxoidLHefIxcmTXD-e88tCWWwb4dTggPmokHAlthp5Bw-aozSYrCw8GbNA5BZS2HzSdUDGYKSTrgAGGOhSck1a7doM1Lk9OCN2Xc0tej1EvK5Ra_a7RIhfv4RujIpiepOhiPIbLxsRGYrbNOOPq3xAZH975qxBygWdSU6SVPpOqZhnxEpipUdvUUyojvlA6cN2FEpW3xqipQhilr1geyAkKiAwiBQ7TCLVcH3lh2kKI-zCtbsUJq_fLEOFAsThKwIRsO-pYzaa-oVBElMZcIsr5MCnMSiWBcwklfZRLwBsoecDybwkb7WflAqTuknL6QDp9AGNKV7PT3fxFPlr4GdflJH5gHp0JXdigW1CQVC7LOWveyrpMoa6ufUVNRwRNiocVPmRPmkaxax90j6VMBDLpajwVwxSLkSAwAz5algCjD-fhxNoWK5lxYRpWw0x1D8qrV9UEWCl9wN69U3EnCsd-MSntfwENH8Peu2Kt4HBMQw5pIf4c29qzAlSIb55Ir1B2Bbqko_6FXelP1tMn-9hROCyfifhlJX6obC9-wC6bFFP3sRVRGfPwtjCoebNQ0mZAx-s0MciP8NKNLrwDfWr_WUmmLfh7wpR8KT5xUG2rIYznvc4HYg3682UyX3sJWPrhJSwj9WKGBTLulhw0qgWGI2veURlT7TBuUbSKu4wV2pa0eKl8f9iAu-5l-rLImntQWKVA16v3dpbnSdFueP2T50XMgYMZIArIflZM3bY7KkcbsKNo-u4vIrB0LaOv6eJz4PHMYUpoVI7_RJk5M1Nq6_4LfOQB4M4mBX8oiIwglRK2Cf56z_FXtZNUgiQpDX_Z0l0yq7Ive6GNv9zzxfWB58TWbsG2tvUF2IKk-WCmBuNV7SivZZc4lviRUcF1KHCOrkKFkmlBc5EK4_KRTzBGJHCzb2JMAV_P2F1sR2oAJWItWTBZ41HOGC0zeFOs4AL9rljDHLmR8H0jup4Sliu763YILKaZ_RJER_yJQJkY1qLnOP0lbwWykyRohYNnZyo-Vqebje09UMKV5irhirPQL1YLt3MaJppIVGlShAHD4dYzAfAQPHOgBKsHLkEoT5di-diRFAVSYEy2FSBdd-Kg5hTlBM0pHof1sMGYLoY4KgHhrN-m7OcZI5WOsa4fImvMpBXZpdmVXn3WTyKH-wzGqUWrg9DT8JOR-nO-i5fXIXs547C5gtqLC-D02Ob3j6y7Lr4Y24iSq0B9lESqjgM3RfxnsChZXAMtUO74SWZkT2b3hiMBg-T8vcxwSNb7p0EUL9F0YdGPH9DfHILItMmlAzJa9Bl55lEsLAsH9KkXkgtXGDjVnl4OuFmIhpxyFgSabr4iecvYVIQ00wYJwInHgCpzXxeHiaEwW2idDfgzKZ9KK_OjGIbEhPYYp4e_ZbwZ0TXN5FsI_Z3Rdvx_SN4_81mulFY0pNzSAxwuM35WwnxA4hKxOjQbmNFl1IPBYYSk5vCzYoYfsd_sEg20Xjfana3QGsqGK3KAqyiXx1ZbCLwIXhaVLoYJZ2LU0jwAsvVPVmN7V7qfhDJVhQ6HMc5QgTy9ymB3sHV4xVJDlHyD1gzoFYOyNiHWXm1KbQwoSy9io2SXiOm-JUuwa74zUVjWPqhItSaHYCUGitynrgqgSAO7YmLlxweYvKQghndsy_4nyjVvvy-YhXpPHcTqttY899vmuMatFF4qnXZnzoh_0VJmZs71x_zYnQ1fXofd_Feeu-4vqIcl3sjLKapZAVESRFllCXOXQsB4mtgvF7qIUKr-N5ba9AikKmnfcb5uOMHY08gHL2cudWSuUc1V3DC-cTDTG0a3ZHYTkJTLWCn7cUGWUFuvj1_eYXcjU7jdAxGSydAB4hoSpnne1I7KfnIObDZnrYW-YrQW1z3PvPPJw-BVYgCiO25i2Niy6TBvlYRUpnhv9kGH5w7UZjpkj6MzGIYF9Dr4ZXfrZNGB_Jvi-HbJ7BgWKZTVVcELYaFVIeUHoAc2TnNQ9akHgQuTv5RxblFiaxafxz7e_ymvDvlHerd5BF8AYXMRZCsdZfuLrfPuC4ICUcRqx8ZTFV8D4Ku4MfZ7knTPfqMOJ3XaVljwO0l-GCOOSdQsBPAMPQgP5ZF3_Gj8wPKcVJ53UQXLS72MU9kxfn-F_E6plN2YpoihM53m64P5mq_wFvkuoQRTK1yLFCKxednSSjxjLeELFTOxPjVBrbcBAtKUhKEmYwPBRFFQuNuFxLy6kjAuvDD33xe2fLhwjDHbhu145QHDZBwJmLjXCPEZ1UGcGhJ0-sqi_X7Xr6cy2-zlMz1t4UvLqjPeE7VPj6ARlp0loR7mzDkeDAlNbRe9tL4HI6C_Vrj2xenF6d1swcDdH0kRlMAdnzbdqovunUxhaWavpbZibsUJb9njIdiBFWN]--></g></svg>