<svg xmlns="http://www.w3.org/2000/svg" xmlns:xlink="http://www.w3.org/1999/xlink" contentStyleType="text/css" data-diagram-type="DESCRIPTION" height="838px" preserveAspectRatio="none" style="width:2957px;height:838px;background:#FFFFFF;" version="1.1" viewBox="0 0 2957 838" width="2957px" zoomAndPan="magnify"><title>Reference 03: Reading Model ingestion dependency structure with data contracts</title><defs/><g><g class="title" data-source-line="2"><text fill="#000000" font-family="Arial" font-size="14" font-weight="bold" lengthAdjust="spacing" textLength="543.0059" x="1199.4971" y="23.1318">Reference 03: Reading Model ingestion dependency structure with data contracts</text></g><!--cluster Parsing and model-building capabilities\n???????????--><g class="cluster" data-entity="Parsing and model-building capabilities.n..........." data-source-line="20" data-uid="ent0006" id="cluster_Parsing and model-building capabilities.n..........."><path d="M30.5,349.0986 L295.9824,349.0986 A3.75,3.75 0 0 1 298.4824,351.5986 L305.4824,387.2959 L1790.5,387.2959 A2.5,2.5 0 0 1 1793,389.7959 L1793,604.5986 A2.5,2.5 0 0 1 1790.5,607.0986 L30.5,607.0986 A2.5,2.5 0 0 1 28,604.5986 L28,351.5986 A2.5,2.5 0 0 1 30.5,349.0986" fill="#DCFCE7" style="stroke:#000000;stroke-width:1.5;"/><line style="stroke:#000000;stroke-width:1.5;" x1="28" x2="305.4824" y1="387.2959" y2="387.2959"/><text fill="#000000" font-family="Arial" font-size="14" font-weight="bold" lengthAdjust="spacing" textLength="264.4824" x="32" y="364.2305">Parsing and model-building capabilities</text><text fill="#000000" font-family="Arial" font-size="14" font-weight="bold" lengthAdjust="spacing" textLength="154" x="87.2412" y="380.3291">&#33021;&#21147;&#25509;&#21475;&#65292;&#19981;&#26159;&#32593;&#32476;&#31471;&#21475;</text></g><!--cluster Persistence surfaces\nMySQL canonical state and object storage--><g class="cluster" data-entity="Persistence surfaces.nMySQL canonical state and object storage" data-source-line="30" data-uid="ent0014" id="cluster_Persistence surfaces.nMySQL canonical state and object storage"><path d="M16.5,643.0986 L299.127,643.0986 A3.75,3.75 0 0 1 301.627,645.5986 L308.627,681.2959 L1650.5,681.2959 A2.5,2.5 0 0 1 1653,683.7959 L1653,743.5986 A2.5,2.5 0 0 1 1650.5,746.0986 L16.5,746.0986 A2.5,2.5 0 0 1 14,743.5986 L14,645.5986 A2.5,2.5 0 0 1 16.5,643.0986" fill="#FEF3C7" style="stroke:#000000;stroke-width:1.5;"/><line style="stroke:#000000;stroke-width:1.5;" x1="14" x2="308.627" y1="681.2959" y2="681.2959"/><text fill="#000000" font-family="Arial" font-size="14" font-weight="bold" lengthAdjust="spacing" textLength="140.0889" x="88.769" y="658.2305">Persistence surfaces</text><text fill="#000000" font-family="Arial" font-size="14" font-weight="bold" lengthAdjust="spacing" textLength="281.627" x="18" y="674.3291">MySQL canonical state and object storage</text></g><!--cluster Retrieval index capabilities\nrebuildable navigation index--><g class="cluster" data-entity="Retrieval index capabilities.nrebuildable navigation index" data-source-line="40" data-uid="ent0022" id="cluster_Retrieval index capabilities.nrebuildable navigation index"><path d="M1803.5,504.0986 L1993.5342,504.0986 A3.75,3.75 0 0 1 1996.0342,506.5986 L2003.0342,542.2959 L2562.5,542.2959 A2.5,2.5 0 0 1 2565,544.7959 L2565,743.5986 A2.5,2.5 0 0 1 2562.5,746.0986 L1803.5,746.0986 A2.5,2.5 0 0 1 1801,743.5986 L1801,506.5986 A2.5,2.5 0 0 1 1803.5,504.0986" fill="#EEF2FF" style="stroke:#000000;stroke-width:1.5;"/><line style="stroke:#000000;stroke-width:1.5;" x1="1801" x2="2003.0342" y1="542.2959" y2="542.2959"/><text fill="#000000" font-family="Arial" font-size="14" font-weight="bold" lengthAdjust="spacing" textLength="179.7441" x="1809.645" y="519.2305">Retrieval index capabilities</text><text fill="#000000" font-family="Arial" font-size="14" font-weight="bold" lengthAdjust="spacing" textLength="189.0342" x="1805" y="535.3291">rebuildable navigation index</text></g><!--entity Entry--><g class="entity" data-entity="Entry" data-source-line="15" data-uid="ent0002" id="entity_Entry"><rect fill="#EEF2FF" height="52.1973" rx="2.5" ry="2.5" style="stroke:#CBD5E1;stroke-width:0.5;" width="201.3232" x="1688.5" y="41.0986"/><text fill="#000000" font-family="Arial" font-size="14" lengthAdjust="spacing" textLength="181.3232" x="1698.5" y="64.2305">Kafka paper-processing topic</text><text fill="#000000" font-family="Arial" font-size="14" lengthAdjust="spacing" textLength="152.5166" x="1698.5" y="80.3291">I1 PaperProcessingTask</text></g><!--entity Consumer--><g class="entity" data-entity="Consumer" data-source-line="16" data-uid="ent0003" id="entity_Consumer"><rect fill="#DBEAFE" height="52.1973" rx="2.5" ry="2.5" style="stroke:#CBD5E1;stroke-width:0.5;" width="191.1924" x="1693.5" y="147.0986"/><text fill="#000000" font-family="Arial" font-size="14" lengthAdjust="spacing" textLength="171.1924" x="1703.5" y="170.2305">PaperProcessingConsumer</text><text fill="#000000" font-family="Arial" font-size="14" lengthAdjust="spacing" textLength="170.8027" x="1703.5" y="186.3291">I1 task -&gt; processing status</text></g><!--entity Parse--><g class="entity" data-entity="Parse" data-source-line="17" data-uid="ent0004" id="entity_Parse"><rect fill="#DBEAFE" height="52.1973" rx="2.5" ry="2.5" style="stroke:#CBD5E1;stroke-width:0.5;" width="313.3779" x="767.5" y="253.0986"/><text fill="#000000" font-family="Arial" font-size="14" lengthAdjust="spacing" textLength="83.2549" x="777.5" y="276.2305">ParseService</text><text fill="#000000" font-family="Arial" font-size="14" lengthAdjust="spacing" textLength="293.3779" x="777.5" y="292.3291">I2 PDF bytes -&gt; ParsedPaper + Reading Model</text></g><!--entity Indexing--><g class="entity" data-entity="Indexing" data-source-line="18" data-uid="ent0005" id="entity_Indexing"><rect fill="#DBEAFE" height="52.1973" rx="2.5" ry="2.5" style="stroke:#CBD5E1;stroke-width:0.5;" width="196.2783" x="1821" y="400.0986"/><text fill="#000000" font-family="Arial" font-size="14" lengthAdjust="spacing" textLength="154.8545" x="1831" y="423.2305">RetrievalIndexingService</text><text fill="#000000" font-family="Arial" font-size="14" lengthAdjust="spacing" textLength="176.2783" x="1831" y="439.3291">I9 paperId -&gt; IndexingResult</text></g><g class="entity" data-entity="GMN55" data-source-line="80" data-uid="ent0056" id="entity_GMN55"><path d="M1099,259.0986 L1099,275.0986 L1080.6387,279.0986 L1099,283.0986 L1099,298.9961 A0,0 0 0 0 1099,298.9961 L1432.9141,298.9961 A0,0 0 0 0 1432.9141,298.9961 L1432.9141,269.0986 L1422.9141,259.0986 L1099,259.0986 A0,0 0 0 0 1099,259.0986" fill="#FEFFDD" style="stroke:#181818;stroke-width:0.5;"/><path d="M1422.9141,259.0986 L1422.9141,269.0986 L1432.9141,269.0986 L1422.9141,259.0986" fill="#FEFFDD" style="stroke:#181818;stroke-width:0.5;"/><text fill="#000000" font-family="Arial" font-size="13" lengthAdjust="spacing" textLength="247.8442" x="1105" y="276.2925">Parser output is retained for reproducibility,</text><text fill="#000000" font-family="Arial" font-size="13" lengthAdjust="spacing" textLength="312.9141" x="1105" y="291.2412">but the durable product contract is the Reading Model.</text></g><g class="entity" data-entity="GMN58" data-source-line="85" data-uid="ent0059" id="entity_GMN58"><path d="M2573,553.0986 L2573,592.9961 A0,0 0 0 0 2573,592.9961 L2950.9541,592.9961 A0,0 0 0 0 2950.9541,592.9961 L2950.9541,563.0986 L2940.9541,553.0986 L2733.1985,553.0986 L1953.891,546.8965 L2725.1985,553.0986 L2573,553.0986 A0,0 0 0 0 2573,553.0986" fill="#FEFFDD" style="stroke:#181818;stroke-width:0.5;"/><path d="M2940.9541,553.0986 L2940.9541,563.0986 L2950.9541,563.0986 L2940.9541,553.0986" fill="#FEFFDD" style="stroke:#181818;stroke-width:0.5;"/><text fill="#000000" font-family="Arial" font-size="13" lengthAdjust="spacing" textLength="224.7388" x="2579" y="570.2925">Qdrant stores location candidates only.</text><text fill="#000000" font-family="Arial" font-size="13" lengthAdjust="spacing" textLength="356.9541" x="2579" y="585.2412">Exact evidence is later reopened from MySQL by location_ref.</text></g><!--entity Upload--><g class="entity" data-entity="Upload" data-source-line="21" data-uid="ent0007" id="entity_Upload"><rect fill="#F8FAFC" height="52.1973" rx="2.5" ry="2.5" style="stroke:#CBD5E1;stroke-width:0.5;" width="237.4854" x="1547.5" y="400.0986"/><text fill="#000000" font-family="Arial" font-size="14" lengthAdjust="spacing" textLength="91.0479" x="1557.5" y="423.2305">UploadService</text><text fill="#000000" font-family="Arial" font-size="14" lengthAdjust="spacing" textLength="217.4854" x="1557.5" y="439.3291">I2a paperId -&gt; merged PDF stream</text></g><!--entity Parser--><g class="entity" data-entity="Parser" data-source-line="22" data-uid="ent0008" id="entity_Parser"><rect fill="#F8FAFC" height="68.2959" rx="2.5" ry="2.5" style="stroke:#CBD5E1;stroke-width:0.5;" width="285.3848" x="935.5" y="392.0986"/><text fill="#000000" font-family="Arial" font-size="14" lengthAdjust="spacing" textLength="99.6064" x="945.5" y="415.2305">PaperPdfParser</text><text fill="#000000" font-family="Arial" font-size="14" lengthAdjust="spacing" textLength="145.8994" x="945.5" y="431.3291">I3 PDF -&gt; ParsedPaper</text><text fill="#000000" font-family="Arial" font-size="14" lengthAdjust="spacing" textLength="265.3848" x="945.5" y="447.4277">default: MinerU / OpenDataLoader adapter</text></g><!--entity Artifact--><g class="entity" data-entity="Artifact" data-source-line="23" data-uid="ent0009" id="entity_Artifact"><rect fill="#F8FAFC" height="52.1973" rx="2.5" ry="2.5" style="stroke:#CBD5E1;stroke-width:0.5;" width="291.1816" x="1238.5" y="400.0986"/><text fill="#000000" font-family="Arial" font-size="14" lengthAdjust="spacing" textLength="168.8408" x="1248.5" y="423.2305">PaperParserArtifactService</text><text fill="#000000" font-family="Arial" font-size="14" lengthAdjust="spacing" textLength="271.1816" x="1248.5" y="439.3291">I4 ParsedPaper -&gt; parser artifact row/object</text></g><!--entity ModelService--><g class="entity" data-entity="ModelService" data-source-line="24" data-uid="ent0010" id="entity_ModelService"><rect fill="#F8FAFC" height="52.1973" rx="2.5" ry="2.5" style="stroke:#CBD5E1;stroke-width:0.5;" width="243.3369" x="36.5" y="400.0986"/><text fill="#000000" font-family="Arial" font-size="14" lengthAdjust="spacing" textLength="174.3232" x="46.5" y="423.2305">PaperReadingModelService</text><text fill="#000000" font-family="Arial" font-size="14" lengthAdjust="spacing" textLength="223.3369" x="46.5" y="439.3291">I5 replace current model transaction</text></g><!--entity Builder--><g class="entity" data-entity="Builder" data-source-line="25" data-uid="ent0011" id="entity_Builder"><rect fill="#F8FAFC" height="52.1973" rx="2.5" ry="2.5" style="stroke:#CBD5E1;stroke-width:0.5;" width="358.9189" x="123.5" y="547.0986"/><text fill="#000000" font-family="Arial" font-size="14" lengthAdjust="spacing" textLength="171.2197" x="133.5" y="570.2305">PaperReadingModelBuilder</text><text fill="#000000" font-family="Arial" font-size="14" lengthAdjust="spacing" textLength="338.9189" x="133.5" y="586.3291">I5a ParsedPaper -&gt; pages/sections/elements/locations</text></g><!--entity Visuals--><g class="entity" data-entity="Visuals" data-source-line="26" data-uid="ent0012" id="entity_Visuals"><rect fill="#F8FAFC" height="52.1973" rx="2.5" ry="2.5" style="stroke:#CBD5E1;stroke-width:0.5;" width="305.5439" x="298" y="400.0986"/><text fill="#000000" font-family="Arial" font-size="14" lengthAdjust="spacing" textLength="157.1855" x="308" y="423.2305">PaperVisualAssetService</text><text fill="#000000" font-family="Arial" font-size="14" lengthAdjust="spacing" textLength="285.5439" x="308" y="439.3291">I6 PDF + parser assets -&gt; MinIO visual assets</text></g><!--entity Chunker--><g class="entity" data-entity="Chunker" data-source-line="27" data-uid="ent0013" id="entity_Chunker"><rect fill="#F8FAFC" height="52.1973" rx="2.5" ry="2.5" style="stroke:#CBD5E1;stroke-width:0.5;" width="295.0918" x="622.5" y="400.0986"/><text fill="#000000" font-family="Arial" font-size="14" lengthAdjust="spacing" textLength="121.4063" x="632.5" y="423.2305">PaperChunkBuilder</text><text fill="#000000" font-family="Arial" font-size="14" lengthAdjust="spacing" textLength="275.0918" x="632.5" y="439.3291">I7 ParsedPaper -&gt; legacy PaperTextChunk[]</text></g><!--entity ModelRepo--><g class="entity" data-entity="ModelRepo" data-source-line="31" data-uid="ent0015" id="entity_ModelRepo"><rect fill="#F8FAFC" height="52.1973" rx="2.5" ry="2.5" style="stroke:#CBD5E1;stroke-width:0.5;" width="219.9785" x="1425" y="686.0986"/><text fill="#000000" font-family="Arial" font-size="14" lengthAdjust="spacing" textLength="194.5576" x="1435" y="709.2305">PaperReadingModelRepository</text><text fill="#000000" font-family="Arial" font-size="14" lengthAdjust="spacing" textLength="199.9785" x="1435" y="725.3291">current READY model metadata</text></g><!--entity PageRepo--><g class="entity" data-entity="PageRepo" data-source-line="32" data-uid="ent0016" id="entity_PageRepo"><rect fill="#F8FAFC" height="52.1973" rx="2.5" ry="2.5" style="stroke:#CBD5E1;stroke-width:0.5;" width="173.3096" x="213.5" y="686.0986"/><text fill="#000000" font-family="Arial" font-size="14" lengthAdjust="spacing" textLength="136.9717" x="223.5" y="709.2305">PaperPageRepository</text><text fill="#000000" font-family="Arial" font-size="14" lengthAdjust="spacing" textLength="153.3096" x="223.5" y="725.3291">physical page text/status</text></g><!--entity SectionRepo--><g class="entity" data-entity="SectionRepo" data-source-line="33" data-uid="ent0017" id="entity_SectionRepo"><rect fill="#F8FAFC" height="52.1973" rx="2.5" ry="2.5" style="stroke:#CBD5E1;stroke-width:0.5;" width="172.5371" x="22.5" y="686.0986"/><text fill="#000000" font-family="Arial" font-size="14" lengthAdjust="spacing" textLength="150.9717" x="32.5" y="709.2305">PaperSectionRepository</text><text fill="#000000" font-family="Arial" font-size="14" lengthAdjust="spacing" textLength="152.5371" x="32.5" y="725.3291">readable paper structure</text></g><!--entity ElementRepo--><g class="entity" data-entity="ElementRepo" data-source-line="34" data-uid="ent0018" id="entity_ElementRepo"><rect fill="#F8FAFC" height="52.1973" rx="2.5" ry="2.5" style="stroke:#CBD5E1;stroke-width:0.5;" width="227.7852" x="841" y="686.0986"/><text fill="#000000" font-family="Arial" font-size="14" lengthAdjust="spacing" textLength="207.7852" x="851" y="709.2305">PaperReadingElementRepository</text><text fill="#000000" font-family="Arial" font-size="14" lengthAdjust="spacing" textLength="133.8613" x="851" y="725.3291">typed content surface</text></g><!--entity LocationRepo--><g class="entity" data-entity="LocationRepo" data-source-line="35" data-uid="ent0019" id="entity_LocationRepo"><rect fill="#F8FAFC" height="52.1973" rx="2.5" ry="2.5" style="stroke:#CBD5E1;stroke-width:0.5;" width="177.2061" x="645.5" y="686.0986"/><text fill="#000000" font-family="Arial" font-size="14" lengthAdjust="spacing" textLength="157.2061" x="655.5" y="709.2305">PaperLocationRepository</text><text fill="#000000" font-family="Arial" font-size="14" lengthAdjust="spacing" textLength="132.3027" x="655.5" y="725.3291">stable navigation refs</text></g><!--entity VisualRepo--><g class="entity" data-entity="VisualRepo" data-source-line="36" data-uid="ent0020" id="entity_VisualRepo"><rect fill="#F8FAFC" height="52.1973" rx="2.5" ry="2.5" style="stroke:#CBD5E1;stroke-width:0.5;" width="223.1094" x="404.5" y="686.0986"/><text fill="#000000" font-family="Arial" font-size="14" lengthAdjust="spacing" textLength="177.4199" x="414.5" y="709.2305">PaperVisualAssetRepository</text><text fill="#000000" font-family="Arial" font-size="14" lengthAdjust="spacing" textLength="203.1094" x="414.5" y="725.3291">asset availability and object keys</text></g><!--entity MinIO--><g class="entity" data-entity="MinIO" data-source-line="37" data-uid="ent0021" id="entity_MinIO"><rect fill="#F8FAFC" height="52.1973" rx="2.5" ry="2.5" style="stroke:#CBD5E1;stroke-width:0.5;" width="318.7783" x="1087.5" y="686.0986"/><text fill="#000000" font-family="Arial" font-size="14" lengthAdjust="spacing" textLength="37.3379" x="1097.5" y="709.2305">MinIO</text><text fill="#000000" font-family="Arial" font-size="14" lengthAdjust="spacing" textLength="298.7783" x="1097.5" y="725.3291">original PDF, parser artifacts, crops/screenshots</text></g><!--entity QdrantIndex--><g class="entity" data-entity="QdrantIndex" data-source-line="41" data-uid="ent0023" id="entity_QdrantIndex"><rect fill="#F8FAFC" height="52.1973" rx="2.5" ry="2.5" style="stroke:#CBD5E1;stroke-width:0.5;" width="234.0127" x="1809" y="547.0986"/><text fill="#000000" font-family="Arial" font-size="14" lengthAdjust="spacing" textLength="214.0127" x="1819" y="570.2305">ReadingModelQdrantIndexService</text><text fill="#000000" font-family="Arial" font-size="14" lengthAdjust="spacing" textLength="212.0508" x="1819" y="586.3291">I9a current model -&gt; QdrantPoint[]</text></g><!--entity BM25--><g class="entity" data-entity="BM25" data-source-line="42" data-uid="ent0024" id="entity_BM25"><rect fill="#F8FAFC" height="52.1973" rx="2.5" ry="2.5" style="stroke:#CBD5E1;stroke-width:0.5;" width="249.9473" x="2039" y="686.0986"/><text fill="#000000" font-family="Arial" font-size="14" lengthAdjust="spacing" textLength="132.2959" x="2049" y="709.2305">LexicalBm25Encoder</text><text fill="#000000" font-family="Arial" font-size="14" lengthAdjust="spacing" textLength="229.9473" x="2049" y="725.3291">I9b searchable text -&gt; sparse vectors</text></g><!--entity Contract--><g class="entity" data-entity="Contract" data-source-line="43" data-uid="ent0025" id="entity_Contract"><rect fill="#F8FAFC" height="52.1973" rx="2.5" ry="2.5" style="stroke:#CBD5E1;stroke-width:0.5;" width="250.3574" x="2307" y="686.0986"/><text fill="#000000" font-family="Arial" font-size="14" lengthAdjust="spacing" textLength="189.082" x="2317" y="709.2305">RetrievalIndexContractService</text><text fill="#000000" font-family="Arial" font-size="14" lengthAdjust="spacing" textLength="230.3574" x="2317" y="725.3291">active avg doc length / index contract</text></g><!--entity Qdrant--><g class="entity" data-entity="Qdrant" data-source-line="44" data-uid="ent0026" id="entity_Qdrant"><rect fill="#F8FAFC" height="52.1973" rx="2.5" ry="2.5" style="stroke:#CBD5E1;stroke-width:0.5;" width="211.4268" x="1809.5" y="686.0986"/><text fill="#000000" font-family="Arial" font-size="14" lengthAdjust="spacing" textLength="78.5928" x="1819.5" y="709.2305">QdrantClient</text><text fill="#000000" font-family="Arial" font-size="14" lengthAdjust="spacing" textLength="191.4268" x="1819.5" y="725.3291">I9c upsert lexical sparse points</text></g><!--entity Searchability--><g class="entity" data-entity="Searchability" data-source-line="45" data-uid="ent0027" id="entity_Searchability"><rect fill="#F8FAFC" height="52.1973" rx="2.5" ry="2.5" style="stroke:#CBD5E1;stroke-width:0.5;" width="190.0371" x="2061" y="547.0986"/><text fill="#000000" font-family="Arial" font-size="14" lengthAdjust="spacing" textLength="164.1924" x="2071" y="570.2305">PaperSearchabilityService</text><text fill="#000000" font-family="Arial" font-size="14" lengthAdjust="spacing" textLength="170.0371" x="2071" y="586.3291">READY + index status gate</text></g><g class="link" data-entity-1="Entry" data-entity-2="Consumer" data-uid="lnk28" id="link_Entry_Consumer"><polygon fill="#334155" points="1789,146.7945,1793,137.7945,1789,141.7945,1785,137.7945,1789,146.7945" style="stroke:#334155;stroke-width:1;"/><path d="M1789,93.2741 C1789,109.5053 1789,124.5381 1789,140.7945" fill="none" style="stroke:#334155;stroke-width:1;"/><text fill="#000000" font-family="Arial" font-size="13" lengthAdjust="spacing" textLength="94.6563" x="1791" y="125.2925">I1 consume task</text></g><g class="link" data-entity-1="Consumer" data-entity-2="Searchability" data-uid="lnk29" id="link_Consumer_Searchability"><polygon fill="#334155" points="2162.3185,546.801,2168.175,538.8825,2163.4028,541.92,2160.3653,537.1478,2162.3185,546.801" style="stroke:#334155;stroke-width:1;"/><path d="M1884.9044,184.2429 C1972.7738,195.6494 2093.7934,217.401 2125,253.0986 C2198.9763,337.721 2176.811,481.5571 2163.6196,540.9438" fill="none" style="stroke:#334155;stroke-width:1;"/><text fill="#000000" font-family="Arial" font-size="13" lengthAdjust="spacing" textLength="182.8379" x="2170" y="337.2925">skip duplicate searchable paper</text></g><g class="link" data-entity-1="Consumer" data-entity-2="Upload" data-uid="lnk30" id="link_Consumer_Upload"><polygon fill="#334155" points="1662.6636,399.8796,1665.7801,390.5368,1662.183,394.9027,1657.8171,391.3057,1662.6636,399.8796" style="stroke:#334155;stroke-width:1;"/><path d="M1739.7447,199.1624 C1719.0324,212.3244 1696.8095,230.4658 1684,253.0986 C1657.6764,299.6091 1658.6801,358.6238 1662.0869,393.9074" fill="none" style="stroke:#334155;stroke-width:1;"/><text fill="#000000" font-family="Arial" font-size="13" lengthAdjust="spacing" textLength="199.4307" x="1686" y="284.2925">I2a getMergedFileStream(paperId)</text></g><g class="link" data-entity-1="Consumer" data-entity-2="Parse" data-uid="lnk31" id="link_Consumer_Parse"><polygon fill="#334155" points="1080.8146,254.3243,1090.269,257.0839,1085.7697,253.6552,1089.1984,249.1559,1080.8146,254.3243" style="stroke:#334155;stroke-width:1;"/><path d="M1693.3251,183.7808 C1558.5596,197.6762 1305.22,224.7402 1090,253.0986 C1086.9661,253.4984 1089.8478,253.1045 1086.7607,253.5214" fill="none" style="stroke:#334155;stroke-width:1;"/><text fill="#000000" font-family="Arial" font-size="13" lengthAdjust="spacing" textLength="119.228" x="1380" y="231.2925">I2 parseAndSave(...)</text></g><g class="link" data-entity-1="Parse" data-entity-2="Parser" data-uid="lnk32" id="link_Parse_Parser"><polygon fill="#334155" points="1042.8141,391.969,1039.0036,382.8872,1039.1738,388.5415,1033.5195,388.7117,1042.8141,391.969" style="stroke:#334155;stroke-width:1;"/><path d="M950.8248,305.3557 C976.3328,329.373 1010.4844,361.5287 1038.4457,387.856" fill="none" style="stroke:#334155;stroke-width:1;"/><text fill="#000000" font-family="Arial" font-size="13" lengthAdjust="spacing" textLength="76.5845" x="990" y="337.2925">I3 parse PDF</text></g><g class="link" data-entity-1="Parse" data-entity-2="Artifact" data-uid="lnk33" id="link_Parse_Artifact"><polygon fill="#334155" points="1339.7603,399.9555,1333.7397,392.1611,1335.3602,397.5809,1329.9404,399.2013,1339.7603,399.9555" style="stroke:#334155;stroke-width:1;"/><path d="M1066.4006,305.1262 C1118.3313,316.1223 1177.0355,330.7648 1229,349.0986 C1267.7202,362.7597 1304.1083,380.7155 1334.4802,397.106" fill="none" style="stroke:#334155;stroke-width:1;"/><text fill="#000000" font-family="Arial" font-size="13" lengthAdjust="spacing" textLength="124.998" x="1207" y="337.2925">I4 save parser artifact</text></g><g class="link" data-entity-1="Parse" data-entity-2="ModelService" data-uid="lnk34" id="link_Parse_ModelService"><polygon fill="#334155" points="193.2583,399.9332,202.9661,398.2719,197.4194,397.1609,198.5304,391.6142,193.2583,399.9332" style="stroke:#334155;stroke-width:1;"/><path d="M767.1412,288.6677 C608.2101,298.8593 374.0226,318.453 289,349.0986 C254.4938,361.5361 223.6881,379.6593 198.2516,396.6064" fill="none" style="stroke:#334155;stroke-width:1;"/><text fill="#000000" font-family="Arial" font-size="13" lengthAdjust="spacing" textLength="182.7935" x="409" y="337.2925">I5 replaceFromParsedPaper(...)</text></g><g class="link" data-entity-1="ModelService" data-entity-2="Builder" data-uid="lnk35" id="link_ModelService_Builder"><polygon fill="#334155" points="277.5458,546.6445,274.0103,537.4521,274.0103,543.1089,268.3535,543.1089,277.5458,546.6445" style="stroke:#334155;stroke-width:1;"/><path d="M183.2571,452.3557 C209.7086,478.8072 246.7782,515.8768 273.3032,542.4018" fill="none" style="stroke:#334155;stroke-width:1;"/><text fill="#000000" font-family="Arial" font-size="13" lengthAdjust="spacing" textLength="237.0405" x="229" y="492.2925">I5a build PaperReadingModelBuildResult</text></g><g class="link" data-entity-1="Builder" data-entity-2="ModelRepo" data-uid="lnk36" id="link_Builder_ModelRepo"><polygon fill="#334155" points="1501.5893,686.074,1496.3961,677.7056,1497.4546,683.2626,1491.8977,684.3211,1501.5893,686.074" style="stroke:#334155;stroke-width:1;"/><path d="M482.5014,598.4645 C589.5563,611.8913 728.292,627.3651 852,635.0986 C883.22,637.0503 1384.81,634.9095 1415,643.0986 C1446.546,651.6556 1473.6062,667.0464 1496.6277,682.7003" fill="none" style="stroke:#334155;stroke-width:1;"/></g><g class="link" data-entity-1="Builder" data-entity-2="PageRepo" data-uid="lnk37" id="link_Builder_PageRepo"><polygon fill="#334155" points="300.5569,685.6661,304.753,676.7558,300.6664,680.6673,296.7549,676.5807,300.5569,685.6661" style="stroke:#334155;stroke-width:1;"/><path d="M302.4498,599.2265 C301.9118,623.7913 301.2285,654.9989 300.6883,679.6675" fill="none" style="stroke:#334155;stroke-width:1;"/></g><g class="link" data-entity-1="Builder" data-entity-2="SectionRepo" data-uid="lnk38" id="link_Builder_SectionRepo"><polygon fill="#334155" points="144.1152,685.8045,153.7588,683.8042,148.1766,682.8882,149.0926,677.306,144.1152,685.8045" style="stroke:#334155;stroke-width:1;"/><path d="M266.7175,599.2246 C247.9548,612.2589 224.7055,628.4736 204,643.0986 C184.1198,657.1408 166.8769,669.4602 148.9889,682.3049" fill="none" style="stroke:#334155;stroke-width:1;"/></g><g class="link" data-entity-1="Builder" data-entity-2="ElementRepo" data-uid="lnk39" id="link_Builder_ElementRepo"><polygon fill="#334155" points="920.0669,685.9742,914.7248,677.7,915.8826,683.2371,910.3455,684.395,920.0669,685.9742" style="stroke:#334155;stroke-width:1;"/><path d="M367.0152,599.113 C409.8803,615.8402 458.7183,634.8441 460,635.0986 C500.4418,643.1313 791.1708,632.4357 831,643.0986 C863.2553,651.7339 891.2142,667.1011 915.0457,682.6897" fill="none" style="stroke:#334155;stroke-width:1;"/></g><g class="link" data-entity-1="Builder" data-entity-2="LocationRepo" data-uid="lnk40" id="link_Builder_LocationRepo"><polygon fill="#334155" points="706.7899,685.8126,702.4519,676.9706,702.9543,682.6051,697.3198,683.1076,706.7899,685.8126" style="stroke:#334155;stroke-width:1;"/><path d="M340.8513,599.1248 C363.1823,612.4602 392.5634,627.6205 421,635.0986 C467.2387,647.2583 590.6449,627.9728 636,643.0986 C662.5206,651.9432 683.7205,666.5207 702.1872,681.9636" fill="none" style="stroke:#334155;stroke-width:1;"/></g><g class="link" data-entity-1="Parse" data-entity-2="Visuals" data-uid="lnk41" id="link_Parse_Visuals"><polygon fill="#334155" points="501.5875,400.0433,511.4309,399.7161,506.0866,397.8619,507.9408,392.5176,501.5875,400.0433" style="stroke:#334155;stroke-width:1;"/><path d="M767.1973,303.8705 C738.9702,309.3397 709.9609,315.75 683,323.0986 C650.9803,331.8261 643.6048,336.262 613,349.0986 C575.1842,364.9597 538.6941,382.0525 506.9864,397.4257" fill="none" style="stroke:#334155;stroke-width:1;"/><text fill="#000000" font-family="Arial" font-size="13" lengthAdjust="spacing" textLength="151.0044" x="685" y="337.2925">I6 replaceVisualAssets(...)</text></g><g class="link" data-entity-1="Visuals" data-entity-2="VisualRepo" data-uid="lnk42" id="link_Visuals_VisualRepo"><polygon fill="#334155" points="515.8382,685.9659,519.6354,676.8785,515.7261,680.9672,511.6374,677.0579,515.8382,685.9659" style="stroke:#334155;stroke-width:1;"/><path d="M466.9324,452.1255 C475.4642,466.7264 485.3526,485.8196 491,504.0986 C510.6076,567.5633 514.8163,640.403 515.7037,679.9674" fill="none" style="stroke:#334155;stroke-width:1;"/></g><g class="link" data-entity-1="Visuals" data-entity-2="MinIO" data-uid="lnk43" id="link_Visuals_MinIO"><polygon fill="#334155" points="1197.7828,685.9924,1191.3349,678.5477,1193.2565,683.8681,1187.936,685.7897,1197.7828,685.9924" style="stroke:#334155;stroke-width:1;"/><path d="M486.0873,452.2423 C553.2221,498.7109 706.1751,596.7834 852,635.0986 C900.6039,647.8692 1028.8395,632.6737 1078,643.0986 C1119.9214,651.9885 1159.3798,667.969 1192.3512,683.4433" fill="none" style="stroke:#334155;stroke-width:1;"/></g><g class="link" data-entity-1="Parse" data-entity-2="Chunker" data-uid="lnk44" id="link_Parse_Chunker"><polygon fill="#334155" points="789.4333,400.0591,798.196,395.5629,792.5714,396.1665,791.9678,390.5419,789.4333,400.0591" style="stroke:#334155;stroke-width:1;"/><path d="M883.918,305.2909 C876.0566,310.8244 868.0647,316.8947 861,323.0986 C833.8958,346.9007 810.6625,373.7256 793.199,395.388" fill="none" style="stroke:#334155;stroke-width:1;"/><text fill="#000000" font-family="Arial" font-size="13" lengthAdjust="spacing" textLength="105.4917" x="863" y="337.2925">I7 buildChunks(...)</text></g><g class="link" data-entity-1="Consumer" data-entity-2="Indexing" data-uid="lnk45" id="link_Consumer_Indexing"><polygon fill="#334155" points="1919.6156,399.8554,1923.5495,390.8263,1919.5789,394.8555,1915.5497,390.8849,1919.6156,399.8554" style="stroke:#334155;stroke-width:1;"/><path d="M1832.7102,199.2599 C1852.2988,212.7556 1873.895,231.1437 1887,253.0986 C1914.7103,299.5222 1919.3127,358.5432 1919.5716,393.8555" fill="none" style="stroke:#334155;stroke-width:1;"/><text fill="#000000" font-family="Arial" font-size="13" lengthAdjust="spacing" textLength="209.5234" x="1910" y="284.2925">I9 indexWithMetrics(paperId, userId)</text></g><g class="link" data-entity-1="Indexing" data-entity-2="QdrantIndex" data-uid="lnk46" id="link_Indexing_QdrantIndex"><polygon fill="#334155" points="1924.7712,546.6445,1928.3325,537.4621,1924.5301,541.6503,1920.3419,537.8478,1924.7712,546.6445" style="stroke:#334155;stroke-width:1;"/><path d="M1920.2193,452.3557 C1921.4963,478.8072 1923.2013,514.1264 1924.4819,540.6515" fill="none" style="stroke:#334155;stroke-width:1;"/><text fill="#000000" font-family="Arial" font-size="13" lengthAdjust="spacing" textLength="151.0107" x="1925" y="492.2925">I9a indexCurrentModel(...)</text></g><g class="link" data-entity-1="QdrantIndex" data-entity-2="ModelRepo" data-uid="lnk47" id="link_QdrantIndex_ModelRepo"><polygon fill="#334155" points="1612.4208,686.0929,1622.2271,687.0068,1617.1585,684.495,1619.6704,679.4264,1612.4208,686.0929" style="stroke:#334155;stroke-width:1;"/><path d="M1837.7977,599.1557 C1820.7789,604.6151 1803.2094,610.692 1787,617.0986 C1769.993,623.8205 1766.87,628.04 1750,635.0986 C1705.0783,653.8945 1659.376,670.2558 1618.1061,684.1754" fill="none" style="stroke:#334155;stroke-width:1;"/><text fill="#000000" font-family="Arial" font-size="13" lengthAdjust="spacing" textLength="127.8799" x="1789" y="631.2925">current READY model</text></g><g class="link" data-entity-1="QdrantIndex" data-entity-2="LocationRepo" data-uid="lnk48" id="link_QdrantIndex_LocationRepo"><polygon fill="#334155" points="762.8304,685.8139,772.3552,683.3081,766.7325,682.6875,767.3531,677.0648,762.8304,685.8139" style="stroke:#334155;stroke-width:1;"/><path d="M1839.8161,599.1518 C1825.6214,602.4079 1810.9796,605.2495 1797,607.0986 C1621.845,630.2671 1178.0845,602.5968 1002,617.0986 C925.8238,623.3723 903.0047,614.8055 832,643.0986 C806.6064,653.2172 786.0273,667.2284 767.5129,682.0623" fill="none" style="stroke:#334155;stroke-width:1;"/><text fill="#000000" font-family="Arial" font-size="13" lengthAdjust="spacing" textLength="110.5762" x="1004" y="631.2925">indexable locations</text></g><g class="link" data-entity-1="QdrantIndex" data-entity-2="ElementRepo" data-uid="lnk49" id="link_QdrantIndex_ElementRepo"><polygon fill="#334155" points="990.868,685.977,1000.6023,684.4793,995.0751,683.2751,996.2792,677.7479,990.868,685.977" style="stroke:#334155;stroke-width:1;"/><path d="M1839.0991,599.1746 C1825.1254,602.3815 1810.7399,605.2019 1797,607.0986 C1638.525,628.9758 1231.0395,596.4956 1078,643.0986 C1046.7218,652.6234 1019.5361,667.5657 995.9165,682.7348" fill="none" style="stroke:#334155;stroke-width:1;"/><text fill="#000000" font-family="Arial" font-size="13" lengthAdjust="spacing" textLength="136.5825" x="1321" y="631.2925">searchable location text</text></g><g class="link" data-entity-1="QdrantIndex" data-entity-2="BM25" data-uid="lnk50" id="link_QdrantIndex_BM25"><polygon fill="#334155" points="2132.8109,685.9806,2128.1522,677.3032,2128.8605,682.9156,2123.2482,683.6239,2132.8109,685.9806" style="stroke:#334155;stroke-width:1;"/><path d="M1993.7119,599.181 C2006.3447,604.5985 2019.2575,610.6536 2031,617.0986 C2067.8087,637.3017 2101.9263,662.0181 2128.0704,682.3026" fill="none" style="stroke:#334155;stroke-width:1;"/><text fill="#000000" font-family="Arial" font-size="13" lengthAdjust="spacing" textLength="191.5088" x="2060" y="631.2925">I9b encode text/query vocabulary</text></g><g class="link" data-entity-1="QdrantIndex" data-entity-2="Contract" data-uid="lnk51" id="link_QdrantIndex_Contract"><polygon fill="#334155" points="2396.8095,686.0804,2391.5352,677.7628,2392.6477,683.3092,2387.1013,684.4217,2396.8095,686.0804" style="stroke:#334155;stroke-width:1;"/><path d="M2011.9218,599.1296 C2025.2459,602.2758 2038.9249,605.0898 2052,607.0986 C2097.0808,614.0248 2213.0528,604.8966 2257,617.0986 C2309.0056,631.5381 2357.8334,660.1275 2391.8154,682.755" fill="none" style="stroke:#334155;stroke-width:1;"/><text fill="#000000" font-family="Arial" font-size="13" lengthAdjust="spacing" textLength="143.7744" x="2304" y="631.2925">ensureActiveContract(...)</text></g><g class="link" data-entity-1="QdrantIndex" data-entity-2="Qdrant" data-uid="lnk52" id="link_QdrantIndex_Qdrant"><polygon fill="#334155" points="1917.042,685.6661,1921.7495,677.0151,1917.4422,680.6821,1913.7752,676.3748,1917.042,685.6661" style="stroke:#334155;stroke-width:1;"/><path d="M1923.9824,599.2265 C1922.0101,623.7913 1919.5029,655.0167 1917.5222,679.6853" fill="none" style="stroke:#334155;stroke-width:1;"/><text fill="#000000" font-family="Arial" font-size="13" lengthAdjust="spacing" textLength="100.4326" x="1925" y="631.2925">I9c upsert(points)</text></g><g class="link" data-entity-1="QdrantIndex" data-entity-2="ModelRepo" data-uid="lnk53" id="link_QdrantIndex_ModelRepo"><polygon fill="#334155" points="1525.3935,686.0136,1526.6607,676.2467,1523.9676,681.2213,1518.9929,678.5281,1525.3935,686.0136" style="stroke:#334155;stroke-width:1;"/><path d="M1838.3767,599.1691 C1824.6258,602.3318 1810.4977,605.1403 1797,607.0986 C1782.42,609.214 1542.2193,606.4864 1532,617.0986 C1514.785,634.9756 1517.3593,659.0115 1523.6824,680.2628" fill="none" style="stroke:#334155;stroke-width:1;"/><text fill="#000000" font-family="Arial" font-size="13" lengthAdjust="spacing" textLength="210.9517" x="1534" y="631.2925">mark retrieval index READY/FAILED</text></g><g class="link" data-entity-1="Consumer" data-entity-2="Consumer" data-uid="lnk54" id="link_Consumer_Consumer"><polygon fill="#334155" points="1884.637,181.3609,1894.1119,184.0489,1889.5868,180.6543,1892.9814,176.1292,1884.637,181.3609" style="stroke:#334155;stroke-width:1;"/><path d="M1884.637,164.8364 C1895.4755,166.3836 1902.5,169.1377 1902.5,173.0986 C1902.5,177.0596 1901.4153,178.9657 1890.5768,180.513" fill="none" style="stroke:#334155;stroke-width:1;"/><text fill="#000000" font-family="Arial" font-size="13" lengthAdjust="spacing" textLength="213.1479" x="1904.5" y="178.2925">markVectorizationCompleted / Failed</text></g><g class="legend" data-source-line="89"><rect fill="#DDDDDD" height="58.2959" rx="7.5" ry="7.5" style="stroke:#000000;stroke-width:1;" width="376.543" x="2553.457" y="760.0986"/><text fill="#000000" font-family="Arial" font-size="14" lengthAdjust="spacing" textLength="76.2891" x="2558.457" y="778.2305">Line legend:</text><text fill="#000000" font-family="Arial" font-size="14" lengthAdjust="spacing" textLength="294.5195" x="2558.457" y="794.3291">solid arrow --&gt; : runtime call / main dependency</text><text fill="#000000" font-family="Arial" font-size="14" lengthAdjust="spacing" textLength="366.543" x="2558.457" y="810.4277">Packages group capability interfaces and storage surfaces.</text></g><!--SRC=[XLVDRXn54BxFKnJE9IYsbzZPXFY0j5xlI1OsSUma2664UgTxTnlFTW_TFHiFA2TkY1znGu8RuiGXLoJ8sv246wz0TVNCRC_k4cwxtLLVLTVFLpLl5OPDvmnoLkdIWPqBnnHBd7IvW7Cn4KQeJC0x-mVuZt6ffd2gkSW1Vmdhf5R0HI4KHx4Ah3DbvaeZuAbqC-3CCSYqSePbpYQ9qmKu3MFjd9u3bqPa7Y6nLr8LpB0vs1dZ-gctCc6v5T4D5nDMvYv5j0_ONC3Mm4YMRqKI0sFqqw7EjO4R-_jtRlVxqMMcvuLMGhaBL-7Bl6Mcfdbi8PTAkAeGe8sRwKswy6K2SAWD5wQsCpmywezk-rEMNKsDBXMlRz9tqq4wJ9uboL9zwtqskM9Gi4AOdSBeJ5ZhtufnaTcbEhuDP_xghBrvnEpL5Z0B8unX1JT6etGlJMF45OMXLhQS2qDW3hLXvps8B5d7N6a9iX656qU7eq4wwg8QAow4MSXC8DGUd1sbCAwSi1wFRZbPXblTiY1akjy4UowSaMB1ycEibsjKMfgu7w9opBs1vlfSM4mvOJP7BMnIOCJPL0Hd_GrJ7ERUYPrnANFoAMC56yjSEYdifVhxgnSll_xfrNU_llp-bt_-_EQltxzzzUFproz-UFt7pwz_Uuw7MuW-J8UZUvJeoF77HQuPZmB2OdSnY5F1AKRO08BDoUEWqyK9sU8JYf1FqZvfTMDwgUfQFu1JB4dp67hm05li2Blf124nweopmWcpZBRPP8Sk1iR92RRVqlaxdGJw-Y11OBKaO1lrzFWpR14oq21iC57ddbA_DD37zYfoXhIHbSPuQKeB80qeowZb2JXM-n_mGvzHYbYVhRkFJDIpWKjiJ-HYZY2sb-kCqH4Pgn4ss7aYRSdoWRKY2j9TIiojDZR-beeVKtBy01QaKnyJVa2n6_27ir9TBHzmRzN_N4mPSYVzVoIk7Sb__4beKlyRlNuMrxl0UhUEUDcM1bFZY_kqkdXuWWMlj98PkkOxNL1FX5JYWKQg5rZZwIZT7wxL-5hCpqMXhKIjwb8rYJmV3Ou-gjFfHuLd-6KklSR6GfoA6AoOLPPyz9a3Xq_kHRpKI6y0kWWvZh6mtJWR8wDJFou74455yl_zrb6ebnZKJm5EWyjBrp4EFBmKte1uKbTSZ8Kly-ufjf1JkiJcc8INnk9lhiiOa6eEs8B9F71R5MVvIbHnFQv3K_rUActaL2hC0PRvzYe3s6t8Z2wmgJ8ZXB8pNHSvANUAiQLqN0YGeLSOrmYYujK8aEXMCyvM2p6kmOSSESCH-KUpWgqG2pPH43pJKhcwTIBLBlu93XAiliFvNd-aCXswyluOh60ccv6llYOzggN0m08ZgqtD8wTx_LL_uwashDUTrbrFU0linCKKkCwmszKKLwDU4wzQl1d9zAUB7nuop2N-yvvcK1QOBOTGrw7LWvU5VxoDthwnWy8RgMvQ5qDNtwfT2hq8cAkcYo8Td_omZEnWVDeTuW1mtyZ2FzexalRAotKWK1Xtgm9uMUJeFx9K57bguwvo6AJU18xTgN2dD6vJcOiBchOtwr7yTbSjR25UAvJtGF4BjX0tTtTttqwISDlAqGlsWw1lYUY-6NzUuWvOX5XjbqWu7cbUeHs5gT7pYFU35nrfhrvF2T9aGBq3csTXM8sIHg6rJGqVdxPq6X_6n1YVn_GMdtUOQldQUkPvT-ys3urOouPNDb9B3OA9ZmElB87hiUU1xuKmq4aDsCrpkncYyFrGmX_YnyUfxyhCDiMn3QKDHTBAxxIqGKUapmB0CD0BHJJOZ0KxmKQr3SDnJJwE8AgG5IhuTajPKucIuLjcsIED2j7KcfedA7hB60JHMvYmdvS2ctQ1gkCoPwPQqsl81tMHyd643eYuckFDOGZ_oLn3IpS33xqvP7Dchh1YkhE3ujTB1ySdewEL94T4urMV427BBoWCG-IuN3YSs3r8SIeAdYHA8wtWY9ivq9FGuadTwFYPM-2NhhJUFiC5cyC4FzYmV8tcPIO3IMqdOnHoCu4qPG8pqRLh6TiZ-FlEzyzkWf_2uAsl-X2FepfgVYF3BwesdRYySOaR5PvfbLUxoUZQsn4BoMdPGuCvtdfVDNuFUCUHLI1iVkEg1VeKDupO4Lmm_Hzo9Jd15qCuEKYipYL77iEDdy9y0APKJYA7urp9CPvp353qWOynfBcFqm6_TOlbjAymXUWPxQAqZjJRPhkWaZ_1xBy0]--></g></svg>