<svg xmlns="http://www.w3.org/2000/svg" xmlns:xlink="http://www.w3.org/1999/xlink" contentStyleType="text/css" data-diagram-type="SEQUENCE" height="1380px" preserveAspectRatio="none" style="width:2642px;height:1380px;background:#FFFFFF;" version="1.1" viewBox="0 0 2642 1380" width="2642px" zoomAndPan="magnify"><title>03 Reading Model Ingestion Runtime Collaboration: UML sequence with data contracts</title><defs/><g><text fill="#000000" font-family="Arial" font-size="14" font-weight="bold" lengthAdjust="spacing" textLength="577.9512" x="1033.5103" y="28.1318">03 Reading Model Ingestion Runtime Collaboration: UML sequence with data contracts</text><g><title>PaperProcessingConsumer</title><rect fill="#F8FAFC" height="139.7437" style="stroke:#94A3B8;stroke-width:1;" width="10" x="361.1221" y="165.2446"/></g><g><title>PaperSearchabilityService</title><rect fill="#F8FAFC" height="28.9487" style="stroke:#94A3B8;stroke-width:1;" width="10" x="567.1646" y="194.1934"/></g><g><title>UploadService</title><rect fill="#F8FAFC" height="28.9487" style="stroke:#94A3B8;stroke-width:1;" width="10" x="718.7847" y="377.5347"/></g><g><title>ParseService</title><rect fill="#F8FAFC" height="268.5386" style="stroke:#94A3B8;stroke-width:1;" width="10" x="829.936" y="435.4321"/></g><g><title>PaperPdfParser</title><rect fill="#F8FAFC" height="28.9487" style="stroke:#94A3B8;stroke-width:1;" width="10" x="1076.6094" y="506.3296"/></g><g><title>PaperParserArtifactService</title><rect fill="#F8FAFC" height="28.9487" style="stroke:#94A3B8;stroke-width:1;" width="10" x="1234.833" y="564.2271"/></g><g><title>PaperReadingModelService</title><rect fill="#F8FAFC" height="28.9487" style="stroke:#94A3B8;stroke-width:1;" width="10" x="1430.415" y="622.1245"/></g><g><title>PaperVisualAssetService</title><rect fill="#F8FAFC" height="28.9487" style="stroke:#94A3B8;stroke-width:1;" width="10" x="1620.1694" y="805.4658"/></g><g><title>PaperChunkBuilder</title><rect fill="#F8FAFC" height="28.9487" style="stroke:#94A3B8;stroke-width:1;" width="10" x="1783.4653" y="863.3633"/></g><g><title>RetrievalIndexingService</title><rect fill="#F8FAFC" height="201.6411" style="stroke:#94A3B8;stroke-width:1;" width="10" x="1945.5957" y="992.1582"/></g><g><title>ReadingModelQdrantIndexService</title><rect fill="#F8FAFC" height="143.7437" style="stroke:#94A3B8;stroke-width:1;" width="10" x="2242.6509" y="1021.1069"/></g><g><title>QdrantClient</title><rect fill="#F8FAFC" height="28.9487" style="stroke:#94A3B8;stroke-width:1;" width="10" x="2456.6343" y="1106.9531"/></g><rect fill="none" height="1028.5547" style="stroke:#000000;stroke-width:1.5;" width="2625.9717" x="10" y="238.1421"/><rect fill="none" height="593.6235" style="stroke:#000000;stroke-width:1.5;" width="2605.9717" x="20" y="666.0732"/><g><title>Kafka</title><rect fill="#000000" fill-opacity="0.00000" height="1149.4009" width="8" x="83.0859" y="134.2959"/><line style="stroke:#94A3B8;stroke-width:0.5;stroke-dasharray:5,5;" x1="87" x2="87" y1="134.2959" y2="1283.6968"/></g><g><title>PaperProcessingConsumer</title><rect fill="#000000" fill-opacity="0.00000" height="1149.4009" width="8" x="362.1221" y="134.2959"/><line style="stroke:#94A3B8;stroke-width:0.5;stroke-dasharray:5,5;" x1="365.5259" x2="365.5259" y1="134.2959" y2="1283.6968"/></g><g><title>PaperSearchabilityService</title><rect fill="#000000" fill-opacity="0.00000" height="1149.4009" width="8" x="568.1646" y="134.2959"/><line style="stroke:#94A3B8;stroke-width:0.5;stroke-dasharray:5,5;" x1="572.0684" x2="572.0684" y1="134.2959" y2="1283.6968"/></g><g><title>UploadService</title><rect fill="#000000" fill-opacity="0.00000" height="1149.4009" width="8" x="719.7847" y="134.2959"/><line style="stroke:#94A3B8;stroke-width:0.5;stroke-dasharray:5,5;" x1="723.2607" x2="723.2607" y1="134.2959" y2="1283.6968"/></g><g><title>ParseService</title><rect fill="#000000" fill-opacity="0.00000" height="1149.4009" width="8" x="830.936" y="134.2959"/><line style="stroke:#94A3B8;stroke-width:0.5;stroke-dasharray:5,5;" x1="834.3086" x2="834.3086" y1="134.2959" y2="1283.6968"/></g><g><title>PaperPdfParser</title><rect fill="#000000" fill-opacity="0.00000" height="1149.4009" width="8" x="1077.6094" y="134.2959"/><line style="stroke:#94A3B8;stroke-width:0.5;stroke-dasharray:5,5;" x1="1080.8062" x2="1080.8062" y1="134.2959" y2="1283.6968"/></g><g><title>PaperParserArtifactService</title><rect fill="#000000" fill-opacity="0.00000" height="1149.4009" width="8" x="1235.833" y="134.2959"/><line style="stroke:#94A3B8;stroke-width:0.5;stroke-dasharray:5,5;" x1="1239.4126" x2="1239.4126" y1="134.2959" y2="1283.6968"/></g><g><title>PaperReadingModelService</title><rect fill="#000000" fill-opacity="0.00000" height="1149.4009" width="8" x="1431.415" y="134.2959"/><line style="stroke:#94A3B8;stroke-width:0.5;stroke-dasharray:5,5;" x1="1435.2534" x2="1435.2534" y1="134.2959" y2="1283.6968"/></g><g><title>PaperVisualAssetService</title><rect fill="#000000" fill-opacity="0.00000" height="1149.4009" width="8" x="1621.1694" y="134.2959"/><line style="stroke:#94A3B8;stroke-width:0.5;stroke-dasharray:5,5;" x1="1624.5767" x2="1624.5767" y1="134.2959" y2="1283.6968"/></g><g><title>PaperChunkBuilder</title><rect fill="#000000" fill-opacity="0.00000" height="1149.4009" width="8" x="1784.4653" y="134.2959"/><line style="stroke:#94A3B8;stroke-width:0.5;stroke-dasharray:5,5;" x1="1787.7622" x2="1787.7622" y1="134.2959" y2="1283.6968"/></g><g><title>RetrievalIndexingService</title><rect fill="#000000" fill-opacity="0.00000" height="1149.4009" width="8" x="1946.5957" y="134.2959"/><line style="stroke:#94A3B8;stroke-width:0.5;stroke-dasharray:5,5;" x1="1950.1685" x2="1950.1685" y1="134.2959" y2="1283.6968"/></g><g><title>ReadingModelQdrantIndexService</title><rect fill="#000000" fill-opacity="0.00000" height="1149.4009" width="8" x="2243.6509" y="134.2959"/><line style="stroke:#94A3B8;stroke-width:0.5;stroke-dasharray:5,5;" x1="2247.6445" x2="2247.6445" y1="134.2959" y2="1283.6968"/></g><g><title>QdrantClient</title><rect fill="#000000" fill-opacity="0.00000" height="1149.4009" width="8" x="2457.6343" y="134.2959"/><line style="stroke:#94A3B8;stroke-width:0.5;stroke-dasharray:5,5;" x1="2461.3379" x2="2461.3379" y1="134.2959" y2="1283.6968"/></g><g><title>PaperService</title><rect fill="#000000" fill-opacity="0.00000" height="1149.4009" width="8" x="2562.9512" y="134.2959"/><line style="stroke:#94A3B8;stroke-width:0.5;stroke-dasharray:5,5;" x1="2566.9307" x2="2566.9307" y1="134.2959" y2="1283.6968"/></g><g class="participant participant-head" data-participant="Entry"><text fill="#000000" font-family="Arial" font-size="14" lengthAdjust="spacing" textLength="35.7998" x="66.186" y="115.2305">Kafka</text><text fill="#000000" font-family="Arial" font-size="14" lengthAdjust="spacing" textLength="108.1719" x="30" y="131.3291">paper-processing</text><ellipse cx="87.0859" cy="50.5986" fill="#E2E2F0" rx="8" ry="8" style="stroke:#181818;stroke-width:0.5;"/><path d="M87.0859,58.5986 L87.0859,85.5986 M74.0859,66.5986 L100.0859,66.5986 M87.0859,85.5986 L74.0859,100.5986 M87.0859,85.5986 L100.0859,100.5986" fill="none" style="stroke:#181818;stroke-width:0.5;"/></g><g class="participant participant-tail" data-participant="Entry"><text fill="#000000" font-family="Arial" font-size="14" lengthAdjust="spacing" textLength="35.7998" x="66.186" y="1295.8286">Kafka</text><text fill="#000000" font-family="Arial" font-size="14" lengthAdjust="spacing" textLength="108.1719" x="30" y="1311.9272">paper-processing</text><ellipse cx="87.0859" cy="1323.394" fill="#E2E2F0" rx="8" ry="8" style="stroke:#181818;stroke-width:0.5;"/><path d="M87.0859,1331.394 L87.0859,1358.394 M74.0859,1339.394 L100.0859,1339.394 M87.0859,1358.394 L74.0859,1373.394 M87.0859,1358.394 L100.0859,1373.394" fill="none" style="stroke:#181818;stroke-width:0.5;"/></g><g class="participant participant-head" data-participant="Consumer"><rect fill="#DBEAFE" height="30.0986" rx="2.5" ry="2.5" style="stroke:#CBD5E1;stroke-width:0.5;" width="185.1924" x="273.5259" y="103.1973"/><text fill="#000000" font-family="Arial" font-size="14" lengthAdjust="spacing" textLength="171.1924" x="280.5259" y="123.3291">PaperProcessingConsumer</text></g><g class="participant participant-tail" data-participant="Consumer"><rect fill="#DBEAFE" height="30.0986" rx="2.5" ry="2.5" style="stroke:#CBD5E1;stroke-width:0.5;" width="185.1924" x="273.5259" y="1282.6968"/><text fill="#000000" font-family="Arial" font-size="14" lengthAdjust="spacing" textLength="171.1924" x="280.5259" y="1302.8286">PaperProcessingConsumer</text></g><g class="participant participant-head" data-participant="Searchability"><rect fill="#DBEAFE" height="30.0986" rx="2.5" ry="2.5" style="stroke:#CBD5E1;stroke-width:0.5;" width="178.1924" x="483.0684" y="103.1973"/><text fill="#000000" font-family="Arial" font-size="14" lengthAdjust="spacing" textLength="164.1924" x="490.0684" y="123.3291">PaperSearchabilityService</text></g><g class="participant participant-tail" data-participant="Searchability"><rect fill="#DBEAFE" height="30.0986" rx="2.5" ry="2.5" style="stroke:#CBD5E1;stroke-width:0.5;" width="178.1924" x="483.0684" y="1282.6968"/><text fill="#000000" font-family="Arial" font-size="14" lengthAdjust="spacing" textLength="164.1924" x="490.0684" y="1302.8286">PaperSearchabilityService</text></g><g class="participant participant-head" data-participant="Upload"><rect fill="#DBEAFE" height="30.0986" rx="2.5" ry="2.5" style="stroke:#CBD5E1;stroke-width:0.5;" width="105.0479" x="671.2607" y="103.1973"/><text fill="#000000" font-family="Arial" font-size="14" lengthAdjust="spacing" textLength="91.0479" x="678.2607" y="123.3291">UploadService</text></g><g class="participant participant-tail" data-participant="Upload"><rect fill="#DBEAFE" height="30.0986" rx="2.5" ry="2.5" style="stroke:#CBD5E1;stroke-width:0.5;" width="105.0479" x="671.2607" y="1282.6968"/><text fill="#000000" font-family="Arial" font-size="14" lengthAdjust="spacing" textLength="91.0479" x="678.2607" y="1302.8286">UploadService</text></g><g class="participant participant-head" data-participant="Parse"><rect fill="#DCFCE7" height="30.0986" rx="2.5" ry="2.5" style="stroke:#CBD5E1;stroke-width:0.5;" width="97.2549" x="786.3086" y="103.1973"/><text fill="#000000" font-family="Arial" font-size="14" lengthAdjust="spacing" textLength="83.2549" x="793.3086" y="123.3291">ParseService</text></g><g class="participant participant-tail" data-participant="Parse"><rect fill="#DCFCE7" height="30.0986" rx="2.5" ry="2.5" style="stroke:#CBD5E1;stroke-width:0.5;" width="97.2549" x="786.3086" y="1282.6968"/><text fill="#000000" font-family="Arial" font-size="14" lengthAdjust="spacing" textLength="83.2549" x="793.3086" y="1302.8286">ParseService</text></g><g class="participant participant-head" data-participant="Parser"><rect fill="#DCFCE7" height="30.0986" rx="2.5" ry="2.5" style="stroke:#CBD5E1;stroke-width:0.5;" width="113.6064" x="1024.8062" y="103.1973"/><text fill="#000000" font-family="Arial" font-size="14" lengthAdjust="spacing" textLength="99.6064" x="1031.8062" y="123.3291">PaperPdfParser</text></g><g class="participant participant-tail" data-participant="Parser"><rect fill="#DCFCE7" height="30.0986" rx="2.5" ry="2.5" style="stroke:#CBD5E1;stroke-width:0.5;" width="113.6064" x="1024.8062" y="1282.6968"/><text fill="#000000" font-family="Arial" font-size="14" lengthAdjust="spacing" textLength="99.6064" x="1031.8062" y="1302.8286">PaperPdfParser</text></g><g class="participant participant-head" data-participant="Artifact"><rect fill="#DCFCE7" height="30.0986" rx="2.5" ry="2.5" style="stroke:#CBD5E1;stroke-width:0.5;" width="182.8408" x="1148.4126" y="103.1973"/><text fill="#000000" font-family="Arial" font-size="14" lengthAdjust="spacing" textLength="168.8408" x="1155.4126" y="123.3291">PaperParserArtifactService</text></g><g class="participant participant-tail" data-participant="Artifact"><rect fill="#DCFCE7" height="30.0986" rx="2.5" ry="2.5" style="stroke:#CBD5E1;stroke-width:0.5;" width="182.8408" x="1148.4126" y="1282.6968"/><text fill="#000000" font-family="Arial" font-size="14" lengthAdjust="spacing" textLength="168.8408" x="1155.4126" y="1302.8286">PaperParserArtifactService</text></g><g class="participant participant-head" data-participant="ModelService"><rect fill="#DCFCE7" height="30.0986" rx="2.5" ry="2.5" style="stroke:#CBD5E1;stroke-width:0.5;" width="188.3232" x="1341.2534" y="103.1973"/><text fill="#000000" font-family="Arial" font-size="14" lengthAdjust="spacing" textLength="174.3232" x="1348.2534" y="123.3291">PaperReadingModelService</text></g><g class="participant participant-tail" data-participant="ModelService"><rect fill="#DCFCE7" height="30.0986" rx="2.5" ry="2.5" style="stroke:#CBD5E1;stroke-width:0.5;" width="188.3232" x="1341.2534" y="1282.6968"/><text fill="#000000" font-family="Arial" font-size="14" lengthAdjust="spacing" textLength="174.3232" x="1348.2534" y="1302.8286">PaperReadingModelService</text></g><g class="participant participant-head" data-participant="Visuals"><rect fill="#DCFCE7" height="30.0986" rx="2.5" ry="2.5" style="stroke:#CBD5E1;stroke-width:0.5;" width="171.1855" x="1539.5767" y="103.1973"/><text fill="#000000" font-family="Arial" font-size="14" lengthAdjust="spacing" textLength="157.1855" x="1546.5767" y="123.3291">PaperVisualAssetService</text></g><g class="participant participant-tail" data-participant="Visuals"><rect fill="#DCFCE7" height="30.0986" rx="2.5" ry="2.5" style="stroke:#CBD5E1;stroke-width:0.5;" width="171.1855" x="1539.5767" y="1282.6968"/><text fill="#000000" font-family="Arial" font-size="14" lengthAdjust="spacing" textLength="157.1855" x="1546.5767" y="1302.8286">PaperVisualAssetService</text></g><g class="participant participant-head" data-participant="Chunker"><rect fill="#DCFCE7" height="30.0986" rx="2.5" ry="2.5" style="stroke:#CBD5E1;stroke-width:0.5;" width="135.4063" x="1720.7622" y="103.1973"/><text fill="#000000" font-family="Arial" font-size="14" lengthAdjust="spacing" textLength="121.4063" x="1727.7622" y="123.3291">PaperChunkBuilder</text></g><g class="participant participant-tail" data-participant="Chunker"><rect fill="#DCFCE7" height="30.0986" rx="2.5" ry="2.5" style="stroke:#CBD5E1;stroke-width:0.5;" width="135.4063" x="1720.7622" y="1282.6968"/><text fill="#000000" font-family="Arial" font-size="14" lengthAdjust="spacing" textLength="121.4063" x="1727.7622" y="1302.8286">PaperChunkBuilder</text></g><g class="participant participant-head" data-participant="Indexing"><rect fill="#EEF2FF" height="30.0986" rx="2.5" ry="2.5" style="stroke:#CBD5E1;stroke-width:0.5;" width="168.8545" x="1866.1685" y="103.1973"/><text fill="#000000" font-family="Arial" font-size="14" lengthAdjust="spacing" textLength="154.8545" x="1873.1685" y="123.3291">RetrievalIndexingService</text></g><g class="participant participant-tail" data-participant="Indexing"><rect fill="#EEF2FF" height="30.0986" rx="2.5" ry="2.5" style="stroke:#CBD5E1;stroke-width:0.5;" width="168.8545" x="1866.1685" y="1282.6968"/><text fill="#000000" font-family="Arial" font-size="14" lengthAdjust="spacing" textLength="154.8545" x="1873.1685" y="1302.8286">RetrievalIndexingService</text></g><g class="participant participant-head" data-participant="QdrantIndex"><rect fill="#EEF2FF" height="30.0986" rx="2.5" ry="2.5" style="stroke:#CBD5E1;stroke-width:0.5;" width="228.0127" x="2133.6445" y="103.1973"/><text fill="#000000" font-family="Arial" font-size="14" lengthAdjust="spacing" textLength="214.0127" x="2140.6445" y="123.3291">ReadingModelQdrantIndexService</text></g><g class="participant participant-tail" data-participant="QdrantIndex"><rect fill="#EEF2FF" height="30.0986" rx="2.5" ry="2.5" style="stroke:#CBD5E1;stroke-width:0.5;" width="228.0127" x="2133.6445" y="1282.6968"/><text fill="#000000" font-family="Arial" font-size="14" lengthAdjust="spacing" textLength="214.0127" x="2140.6445" y="1302.8286">ReadingModelQdrantIndexService</text></g><g class="participant participant-head" data-participant="Qdrant"><rect fill="#FEF3C7" height="30.0986" rx="2.5" ry="2.5" style="stroke:#CBD5E1;stroke-width:0.5;" width="92.5928" x="2415.3379" y="103.1973"/><text fill="#000000" font-family="Arial" font-size="14" lengthAdjust="spacing" textLength="78.5928" x="2422.3379" y="123.3291">QdrantClient</text></g><g class="participant participant-tail" data-participant="Qdrant"><rect fill="#FEF3C7" height="30.0986" rx="2.5" ry="2.5" style="stroke:#CBD5E1;stroke-width:0.5;" width="92.5928" x="2415.3379" y="1282.6968"/><text fill="#000000" font-family="Arial" font-size="14" lengthAdjust="spacing" textLength="78.5928" x="2422.3379" y="1302.8286">QdrantClient</text></g><g class="participant participant-head" data-participant="PaperService"><rect fill="#DBEAFE" height="30.0986" rx="2.5" ry="2.5" style="stroke:#CBD5E1;stroke-width:0.5;" width="98.041" x="2517.9307" y="103.1973"/><text fill="#000000" font-family="Arial" font-size="14" lengthAdjust="spacing" textLength="84.041" x="2524.9307" y="123.3291">PaperService</text></g><g class="participant participant-tail" data-participant="PaperService"><rect fill="#DBEAFE" height="30.0986" rx="2.5" ry="2.5" style="stroke:#CBD5E1;stroke-width:0.5;" width="98.041" x="2517.9307" y="1282.6968"/><text fill="#000000" font-family="Arial" font-size="14" lengthAdjust="spacing" textLength="84.041" x="2524.9307" y="1302.8286">PaperService</text></g><g><title>PaperProcessingConsumer</title><rect fill="#F8FAFC" height="139.7437" style="stroke:#94A3B8;stroke-width:1;" width="10" x="361.1221" y="165.2446"/></g><g><title>PaperSearchabilityService</title><rect fill="#F8FAFC" height="28.9487" style="stroke:#94A3B8;stroke-width:1;" width="10" x="567.1646" y="194.1934"/></g><g><title>UploadService</title><rect fill="#F8FAFC" height="28.9487" style="stroke:#94A3B8;stroke-width:1;" width="10" x="718.7847" y="377.5347"/></g><g><title>ParseService</title><rect fill="#F8FAFC" height="268.5386" style="stroke:#94A3B8;stroke-width:1;" width="10" x="829.936" y="435.4321"/></g><g><title>PaperPdfParser</title><rect fill="#F8FAFC" height="28.9487" style="stroke:#94A3B8;stroke-width:1;" width="10" x="1076.6094" y="506.3296"/></g><g><title>PaperParserArtifactService</title><rect fill="#F8FAFC" height="28.9487" style="stroke:#94A3B8;stroke-width:1;" width="10" x="1234.833" y="564.2271"/></g><g><title>PaperReadingModelService</title><rect fill="#F8FAFC" height="28.9487" style="stroke:#94A3B8;stroke-width:1;" width="10" x="1430.415" y="622.1245"/></g><g><title>PaperVisualAssetService</title><rect fill="#F8FAFC" height="28.9487" style="stroke:#94A3B8;stroke-width:1;" width="10" x="1620.1694" y="805.4658"/></g><g><title>PaperChunkBuilder</title><rect fill="#F8FAFC" height="28.9487" style="stroke:#94A3B8;stroke-width:1;" width="10" x="1783.4653" y="863.3633"/></g><g><title>RetrievalIndexingService</title><rect fill="#F8FAFC" height="201.6411" style="stroke:#94A3B8;stroke-width:1;" width="10" x="1945.5957" y="992.1582"/></g><g><title>ReadingModelQdrantIndexService</title><rect fill="#F8FAFC" height="143.7437" style="stroke:#94A3B8;stroke-width:1;" width="10" x="2242.6509" y="1021.1069"/></g><g><title>QdrantClient</title><rect fill="#F8FAFC" height="28.9487" style="stroke:#94A3B8;stroke-width:1;" width="10" x="2456.6343" y="1106.9531"/></g><g class="message" data-participant-1="Entry" data-participant-2="Consumer"><polygon fill="#334155" points="349.1221,161.2446,359.1221,165.2446,349.1221,169.2446,353.1221,165.2446" style="stroke:#334155;stroke-width:1;"/><line style="stroke:#334155;stroke-width:1;" x1="87.0859" x2="355.1221" y1="165.2446" y2="165.2446"/><text fill="#000000" font-family="Arial" font-size="13" lengthAdjust="spacing" textLength="255.0361" x="94.0859" y="160.4897">I1 processTask(task: PaperProcessingTask)</text></g><g class="message" data-participant-1="Consumer" data-participant-2="Searchability"><polygon fill="#334155" points="555.1646,190.1934,565.1646,194.1934,555.1646,198.1934,559.1646,194.1934" style="stroke:#334155;stroke-width:1;"/><line style="stroke:#334155;stroke-width:1;" x1="371.1221" x2="561.1646" y1="194.1934" y2="194.1934"/><text fill="#000000" font-family="Arial" font-size="13" lengthAdjust="spacing" textLength="177.0425" x="378.1221" y="189.4385">I1a isSearchable(task.paperId)</text></g><g class="message" data-participant-1="Searchability" data-participant-2="Consumer"><polygon fill="#334155" points="382.1221,219.1421,372.1221,223.1421,382.1221,227.1421,378.1221,223.1421" style="stroke:#334155;stroke-width:1;"/><line style="stroke:#334155;stroke-width:1;stroke-dasharray:2,2;" x1="376.1221" x2="571.1646" y1="223.1421" y2="223.1421"/><text fill="#000000" font-family="Arial" font-size="13" lengthAdjust="spacing" textLength="95.3989" x="388.1221" y="218.3872">searchable: bool</text></g><path d="M10,238.1421 L70.1709,238.1421 L70.1709,245.0908 L60.1709,255.0908 L10,255.0908 L10,238.1421" fill="#EEEEEE" style="stroke:#000000;stroke-width:1.5;"/><rect fill="none" height="1028.5547" style="stroke:#000000;stroke-width:1.5;" width="2625.9717" x="10" y="238.1421"/><text fill="#000000" font-family="Arial" font-size="13" font-weight="bold" lengthAdjust="spacing" textLength="15.1709" x="25" y="251.3359">alt</text><text fill="#000000" font-family="Arial" font-size="11" font-weight="bold" lengthAdjust="spacing" textLength="214.5537" x="85.1709" y="250.46">[I1b already current READY and indexed]</text><g class="message" data-participant-1="Consumer" data-participant-2="PaperService"><polygon fill="#334155" points="2554.9512,272.0396,2564.9512,276.0396,2554.9512,280.0396,2558.9512,276.0396" style="stroke:#334155;stroke-width:1;"/><line style="stroke:#334155;stroke-width:1;" x1="371.1221" x2="2560.9512" y1="276.0396" y2="276.0396"/><text fill="#000000" font-family="Arial" font-size="13" lengthAdjust="spacing" textLength="265.1416" x="378.1221" y="271.2847">markVectorizationCompleted(existing metrics)</text></g><g class="message" data-participant-1="Consumer" data-participant-2="Entry"><polygon fill="#334155" points="98.0859,300.9883,88.0859,304.9883,98.0859,308.9883,94.0859,304.9883" style="stroke:#334155;stroke-width:1;"/><line style="stroke:#334155;stroke-width:1;stroke-dasharray:2,2;" x1="92.0859" x2="365.1221" y1="304.9883" y2="304.9883"/><text fill="#000000" font-family="Arial" font-size="13" lengthAdjust="spacing" textLength="166.937" x="104.0859" y="300.2334">skipped duplicate processing</text></g><line style="stroke:#000000;stroke-width:1;stroke-dasharray:2,2;" x1="10" x2="2635.9717" y1="313.9883" y2="313.9883"/><text fill="#000000" font-family="Arial" font-size="11" font-weight="bold" lengthAdjust="spacing" textLength="109.4253" x="15" y="324.3062">[I1c parse and index]</text><g class="message" data-participant-1="Consumer" data-participant-2="PaperService"><polygon fill="#334155" points="2554.9512,344.5859,2564.9512,348.5859,2554.9512,352.5859,2558.9512,348.5859" style="stroke:#334155;stroke-width:1;"/><line style="stroke:#334155;stroke-width:1;" x1="366.1221" x2="2560.9512" y1="348.5859" y2="348.5859"/><text fill="#000000" font-family="Arial" font-size="13" lengthAdjust="spacing" textLength="221.0952" x="373.1221" y="343.8311">markVectorizationProcessing(paperId)</text></g><g class="message" data-participant-1="Consumer" data-participant-2="Upload"><polygon fill="#334155" points="706.7847,373.5347,716.7847,377.5347,706.7847,381.5347,710.7847,377.5347" style="stroke:#334155;stroke-width:1;"/><line style="stroke:#334155;stroke-width:1;" x1="366.1221" x2="712.7847" y1="377.5347" y2="377.5347"/><text fill="#000000" font-family="Arial" font-size="13" lengthAdjust="spacing" textLength="192.2007" x="373.1221" y="372.7798">I2 getMergedFileStream(paperId)</text></g><g class="message" data-participant-1="Upload" data-participant-2="Consumer"><polygon fill="#334155" points="377.1221,402.4834,367.1221,406.4834,377.1221,410.4834,373.1221,406.4834" style="stroke:#334155;stroke-width:1;"/><line style="stroke:#334155;stroke-width:1;stroke-dasharray:2,2;" x1="371.1221" x2="722.7847" y1="406.4834" y2="406.4834"/><text fill="#000000" font-family="Arial" font-size="13" lengthAdjust="spacing" textLength="136.5571" x="383.1221" y="401.7285">fileStream: InputStream</text></g><g class="message" data-participant-1="Consumer" data-participant-2="Parse"><polygon fill="#334155" points="817.936,431.4321,827.936,435.4321,817.936,439.4321,821.936,435.4321" style="stroke:#334155;stroke-width:1;"/><line style="stroke:#334155;stroke-width:1;" x1="366.1221" x2="823.936" y1="435.4321" y2="435.4321"/><text fill="#000000" font-family="Arial" font-size="13" lengthAdjust="spacing" textLength="389.4668" x="373.1221" y="430.6772">I3 parseAndSave(paperId, fileStream, title, userId, orgTag, isPublic)</text></g><g class="message" data-participant-1="Parse" data-participant-2="Parse"><line style="stroke:#334155;stroke-width:1;" x1="839.936" x2="881.936" y1="464.3809" y2="464.3809"/><line style="stroke:#334155;stroke-width:1;" x1="881.936" x2="881.936" y1="464.3809" y2="477.3809"/><line style="stroke:#334155;stroke-width:1;" x1="840.936" x2="881.936" y1="477.3809" y2="477.3809"/><polygon fill="#334155" points="850.936,473.3809,840.936,477.3809,850.936,481.3809,846.936,477.3809" style="stroke:#334155;stroke-width:1;"/><text fill="#000000" font-family="Arial" font-size="13" lengthAdjust="spacing" textLength="207.0479" x="846.936" y="459.626">read pdfBytes + physicalPageCount</text></g><g class="message" data-participant-1="Parse" data-participant-2="Parser"><polygon fill="#334155" points="1064.6094,502.3296,1074.6094,506.3296,1064.6094,510.3296,1068.6094,506.3296" style="stroke:#334155;stroke-width:1;"/><line style="stroke:#334155;stroke-width:1;" x1="839.936" x2="1070.6094" y1="506.3296" y2="506.3296"/><text fill="#000000" font-family="Arial" font-size="13" lengthAdjust="spacing" textLength="208.8188" x="846.936" y="501.5747">I4 parse(pdfBytes, originalFilename)</text></g><g class="message" data-participant-1="Parser" data-participant-2="Parse"><polygon fill="#334155" points="850.936,531.2783,840.936,535.2783,850.936,539.2783,846.936,535.2783" style="stroke:#334155;stroke-width:1;"/><line style="stroke:#334155;stroke-width:1;stroke-dasharray:2,2;" x1="844.936" x2="1080.6094" y1="535.2783" y2="535.2783"/><text fill="#000000" font-family="Arial" font-size="13" lengthAdjust="spacing" textLength="157.5425" x="856.936" y="530.5234">parsedPaper: ParsedPaper</text></g><g class="message" data-participant-1="Parse" data-participant-2="Artifact"><polygon fill="#334155" points="1222.833,560.2271,1232.833,564.2271,1222.833,568.2271,1226.833,564.2271" style="stroke:#334155;stroke-width:1;"/><line style="stroke:#334155;stroke-width:1;" x1="839.936" x2="1228.833" y1="564.2271" y2="564.2271"/><text fill="#000000" font-family="Arial" font-size="13" lengthAdjust="spacing" textLength="273.127" x="846.936" y="559.4722">I5 saveParserArtifact(paperId, parsedPaper, ...)</text></g><g class="message" data-participant-1="Artifact" data-participant-2="Parse"><polygon fill="#334155" points="850.936,589.1758,840.936,593.1758,850.936,597.1758,846.936,593.1758" style="stroke:#334155;stroke-width:1;"/><line style="stroke:#334155;stroke-width:1;stroke-dasharray:2,2;" x1="844.936" x2="1238.833" y1="593.1758" y2="593.1758"/><text fill="#000000" font-family="Arial" font-size="13" lengthAdjust="spacing" textLength="95.3735" x="856.936" y="588.4209">artifact persisted</text></g><g class="message" data-participant-1="Parse" data-participant-2="ModelService"><polygon fill="#334155" points="1418.415,618.1245,1428.415,622.1245,1418.415,626.1245,1422.415,622.1245" style="stroke:#334155;stroke-width:1;"/><line style="stroke:#334155;stroke-width:1;" x1="839.936" x2="1424.415" y1="622.1245" y2="622.1245"/><text fill="#000000" font-family="Arial" font-size="13" lengthAdjust="spacing" textLength="435.0112" x="846.936" y="617.3696">I6 replaceFromParsedPaper(paperId, parsedPaper, physicalPageCount, ...)</text></g><g class="message" data-participant-1="ModelService" data-participant-2="Parse"><polygon fill="#334155" points="850.936,647.0732,840.936,651.0732,850.936,655.0732,846.936,651.0732" style="stroke:#334155;stroke-width:1;"/><line style="stroke:#334155;stroke-width:1;stroke-dasharray:2,2;" x1="844.936" x2="1434.415" y1="651.0732" y2="651.0732"/><text fill="#000000" font-family="Arial" font-size="13" lengthAdjust="spacing" textLength="204.5215" x="856.936" y="646.3184">readingModel: PaperReadingModel</text></g><path d="M20,666.0732 L80.1709,666.0732 L80.1709,673.022 L70.1709,683.022 L20,683.022 L20,666.0732" fill="#EEEEEE" style="stroke:#000000;stroke-width:1.5;"/><rect fill="none" height="593.6235" style="stroke:#000000;stroke-width:1.5;" width="2605.9717" x="20" y="666.0732"/><text fill="#000000" font-family="Arial" font-size="13" font-weight="bold" lengthAdjust="spacing" textLength="15.1709" x="35" y="679.2671">alt</text><text fill="#000000" font-family="Arial" font-size="11" font-weight="bold" lengthAdjust="spacing" textLength="249.0684" x="95.1709" y="678.3911">[I6a modelStatus != READING_MODEL_READY]</text><g class="message" data-participant-1="Parse" data-participant-2="Consumer"><polygon fill="#334155" points="377.1221,699.9707,367.1221,703.9707,377.1221,707.9707,373.1221,703.9707" style="stroke:#334155;stroke-width:1;"/><line style="stroke:#334155;stroke-width:1;stroke-dasharray:2,2;" x1="371.1221" x2="833.936" y1="703.9707" y2="703.9707"/><text fill="#000000" font-family="Arial" font-size="13" lengthAdjust="spacing" textLength="233.4224" x="383.1221" y="699.2158">PaperReadingModelNotReadyException</text></g><g class="message" data-participant-1="Consumer" data-participant-2="PaperService"><polygon fill="#334155" points="2554.9512,728.9194,2564.9512,732.9194,2554.9512,736.9194,2558.9512,732.9194" style="stroke:#334155;stroke-width:1;"/><line style="stroke:#334155;stroke-width:1;" x1="366.1221" x2="2560.9512" y1="732.9194" y2="732.9194"/><text fill="#000000" font-family="Arial" font-size="13" lengthAdjust="spacing" textLength="226.8652" x="373.1221" y="728.1646">markVectorizationFailed(paperId, error)</text></g><g class="message" data-participant-1="Consumer" data-participant-2="Entry"><polygon fill="#334155" points="98.0859,757.8682,88.0859,761.8682,98.0859,765.8682,94.0859,761.8682" style="stroke:#334155;stroke-width:1;"/><line style="stroke:#334155;stroke-width:1;stroke-dasharray:2,2;" x1="92.0859" x2="365.1221" y1="761.8682" y2="761.8682"/><text fill="#000000" font-family="Arial" font-size="13" lengthAdjust="spacing" textLength="31.0781" x="104.0859" y="757.1133">failed</text></g><line style="stroke:#000000;stroke-width:1;stroke-dasharray:2,2;" x1="20" x2="2625.9717" y1="770.8682" y2="770.8682"/><text fill="#000000" font-family="Arial" font-size="11" font-weight="bold" lengthAdjust="spacing" textLength="132.0322" x="25" y="781.186">[I6b current model ready]</text><g class="message" data-participant-1="Parse" data-participant-2="Visuals"><polygon fill="#334155" points="1608.1694,801.4658,1618.1694,805.4658,1608.1694,809.4658,1612.1694,805.4658" style="stroke:#334155;stroke-width:1;"/><line style="stroke:#334155;stroke-width:1;" x1="834.936" x2="1614.1694" y1="805.4658" y2="805.4658"/><text fill="#000000" font-family="Arial" font-size="13" lengthAdjust="spacing" textLength="377.1841" x="841.936" y="800.7109">I7 replaceVisualAssets(pdfBytes, parsedPaper, modelVersion, ...)</text></g><g class="message" data-participant-1="Visuals" data-participant-2="Parse"><polygon fill="#334155" points="845.936,830.4146,835.936,834.4146,845.936,838.4146,841.936,834.4146" style="stroke:#334155;stroke-width:1;"/><line style="stroke:#334155;stroke-width:1;stroke-dasharray:2,2;" x1="839.936" x2="1624.1694" y1="834.4146" y2="834.4146"/><text fill="#000000" font-family="Arial" font-size="13" lengthAdjust="spacing" textLength="130.7808" x="851.936" y="829.6597">visual assets persisted</text></g><g class="message" data-participant-1="Parse" data-participant-2="Chunker"><polygon fill="#334155" points="1771.4653,859.3633,1781.4653,863.3633,1771.4653,867.3633,1775.4653,863.3633" style="stroke:#334155;stroke-width:1;"/><line style="stroke:#334155;stroke-width:1;" x1="834.936" x2="1777.4653" y1="863.3633" y2="863.3633"/><text fill="#000000" font-family="Arial" font-size="13" lengthAdjust="spacing" textLength="236.2979" x="841.936" y="858.6084">I8 buildChunks(parsedPaper, chunkSize)</text></g><g class="message" data-participant-1="Chunker" data-participant-2="Parse"><polygon fill="#334155" points="845.936,888.312,835.936,892.312,845.936,896.312,841.936,892.312" style="stroke:#334155;stroke-width:1;"/><line style="stroke:#334155;stroke-width:1;stroke-dasharray:2,2;" x1="839.936" x2="1787.4653" y1="892.312" y2="892.312"/><text fill="#000000" font-family="Arial" font-size="13" lengthAdjust="spacing" textLength="215.3633" x="851.936" y="887.5571">chunks: List&lt;PaperChunkCandidate&gt;</text></g><g class="message" data-participant-1="Parse" data-participant-2="Parse"><line style="stroke:#334155;stroke-width:1;" x1="834.936" x2="876.936" y1="921.2607" y2="921.2607"/><line style="stroke:#334155;stroke-width:1;" x1="876.936" x2="876.936" y1="921.2607" y2="934.2607"/><line style="stroke:#334155;stroke-width:1;" x1="835.936" x2="876.936" y1="934.2607" y2="934.2607"/><polygon fill="#334155" points="845.936,930.2607,835.936,934.2607,845.936,938.2607,841.936,934.2607" style="stroke:#334155;stroke-width:1;"/><text fill="#000000" font-family="Arial" font-size="13" lengthAdjust="spacing" textLength="232.6733" x="841.936" y="916.5059">saveStructuredChunks(paperId, chunks)</text></g><g class="message" data-participant-1="Parse" data-participant-2="Consumer"><polygon fill="#334155" points="377.1221,959.2095,367.1221,963.2095,377.1221,967.2095,373.1221,963.2095" style="stroke:#334155;stroke-width:1;"/><line style="stroke:#334155;stroke-width:1;stroke-dasharray:2,2;" x1="371.1221" x2="833.936" y1="963.2095" y2="963.2095"/><text fill="#000000" font-family="Arial" font-size="13" lengthAdjust="spacing" textLength="88.8799" x="383.1221" y="958.4546">parse complete</text></g><g class="message" data-participant-1="Consumer" data-participant-2="Indexing"><polygon fill="#334155" points="1933.5957,988.1582,1943.5957,992.1582,1933.5957,996.1582,1937.5957,992.1582" style="stroke:#334155;stroke-width:1;"/><line style="stroke:#334155;stroke-width:1;" x1="366.1221" x2="1939.5957" y1="992.1582" y2="992.1582"/><text fill="#000000" font-family="Arial" font-size="13" lengthAdjust="spacing" textLength="239.1543" x="373.1221" y="987.4033">I9 indexWithMetrics(paperId, requesterId)</text></g><g class="message" data-participant-1="Indexing" data-participant-2="QdrantIndex"><polygon fill="#334155" points="2230.6509,1017.1069,2240.6509,1021.1069,2230.6509,1025.1069,2234.6509,1021.1069" style="stroke:#334155;stroke-width:1;"/><line style="stroke:#334155;stroke-width:1;" x1="1955.5957" x2="2236.6509" y1="1021.1069" y2="1021.1069"/><text fill="#000000" font-family="Arial" font-size="13" lengthAdjust="spacing" textLength="268.0552" x="1962.5957" y="1016.3521">I9a indexCurrentModel(current READY model)</text></g><g class="message" data-participant-1="QdrantIndex" data-participant-2="QdrantIndex"><line style="stroke:#334155;stroke-width:1;" x1="2252.6509" x2="2294.6509" y1="1065.0044" y2="1065.0044"/><line style="stroke:#334155;stroke-width:1;" x1="2294.6509" x2="2294.6509" y1="1065.0044" y2="1078.0044"/><line style="stroke:#334155;stroke-width:1;" x1="2253.6509" x2="2294.6509" y1="1078.0044" y2="1078.0044"/><polygon fill="#334155" points="2263.6509,1074.0044,2253.6509,1078.0044,2263.6509,1082.0044,2259.6509,1078.0044" style="stroke:#334155;stroke-width:1;"/><text fill="#000000" font-family="Arial" font-size="13" lengthAdjust="spacing" textLength="133.7134" x="2259.6509" y="1045.3008">build IndexedLocation[]</text><text fill="#000000" font-family="Arial" font-size="13" lengthAdjust="spacing" textLength="133.3071" x="2259.6509" y="1060.2495">+ BM25 sparse vectors</text></g><g class="message" data-participant-1="QdrantIndex" data-participant-2="Qdrant"><polygon fill="#334155" points="2444.6343,1102.9531,2454.6343,1106.9531,2444.6343,1110.9531,2448.6343,1106.9531" style="stroke:#334155;stroke-width:1;"/><line style="stroke:#334155;stroke-width:1;" x1="2252.6509" x2="2450.6343" y1="1106.9531" y2="1106.9531"/><text fill="#000000" font-family="Arial" font-size="13" lengthAdjust="spacing" textLength="184.9834" x="2259.6509" y="1102.1982">I9b upsert(points: QdrantPoint[])</text></g><g class="message" data-participant-1="Qdrant" data-participant-2="QdrantIndex"><polygon fill="#334155" points="2263.6509,1131.9019,2253.6509,1135.9019,2263.6509,1139.9019,2259.6509,1135.9019" style="stroke:#334155;stroke-width:1;"/><line style="stroke:#334155;stroke-width:1;stroke-dasharray:2,2;" x1="2257.6509" x2="2460.6343" y1="1135.9019" y2="1135.9019"/><text fill="#000000" font-family="Arial" font-size="13" lengthAdjust="spacing" textLength="73.7026" x="2269.6509" y="1131.147">written count</text></g><g class="message" data-participant-1="QdrantIndex" data-participant-2="Indexing"><polygon fill="#334155" points="1966.5957,1160.8506,1956.5957,1164.8506,1966.5957,1168.8506,1962.5957,1164.8506" style="stroke:#334155;stroke-width:1;"/><line style="stroke:#334155;stroke-width:1;stroke-dasharray:2,2;" x1="1960.5957" x2="2246.6509" y1="1164.8506" y2="1164.8506"/><text fill="#000000" font-family="Arial" font-size="13" lengthAdjust="spacing" textLength="227.6079" x="1972.5957" y="1160.0957">IndexResult(tokens, locations, contract)</text></g><g class="message" data-participant-1="Indexing" data-participant-2="Consumer"><polygon fill="#334155" points="377.1221,1189.7993,367.1221,1193.7993,377.1221,1197.7993,373.1221,1193.7993" style="stroke:#334155;stroke-width:1;"/><line style="stroke:#334155;stroke-width:1;stroke-dasharray:2,2;" x1="371.1221" x2="1949.5957" y1="1193.7993" y2="1193.7993"/><text fill="#000000" font-family="Arial" font-size="13" lengthAdjust="spacing" textLength="85.998" x="383.1221" y="1189.0444">IndexingResult</text></g><g class="message" data-participant-1="Consumer" data-participant-2="PaperService"><polygon fill="#334155" points="2554.9512,1218.748,2564.9512,1222.748,2554.9512,1226.748,2558.9512,1222.748" style="stroke:#334155;stroke-width:1;"/><line style="stroke:#334155;stroke-width:1;" x1="366.1221" x2="2560.9512" y1="1222.748" y2="1222.748"/><text fill="#000000" font-family="Arial" font-size="13" lengthAdjust="spacing" textLength="260.8379" x="373.1221" y="1217.9932">markVectorizationCompleted(indexingResult)</text></g><g class="message" data-participant-1="Consumer" data-participant-2="Entry"><polygon fill="#334155" points="98.0859,1247.6968,88.0859,1251.6968,98.0859,1255.6968,94.0859,1251.6968" style="stroke:#334155;stroke-width:1;"/><line style="stroke:#334155;stroke-width:1;stroke-dasharray:2,2;" x1="92.0859" x2="365.1221" y1="1251.6968" y2="1251.6968"/><text fill="#000000" font-family="Arial" font-size="13" lengthAdjust="spacing" textLength="136.5889" x="104.0859" y="1246.9419">searchable paper ready</text></g><!--SRC=[bLTjRzis4FwkNt5DloHe4gnDqwJ6Li1Mh25OqcN9sc5eYu8MpmvXcTH8AgaxxB_lIBsHiXsW7n9OfxldddibzQpKRB5YKB2rgYoO5LecMMA5BH1-Ee5RP5p81LmhZWLSoWKQAvI4sqfQiK98LL6mcTBCIKVmuVeA3FvJeSmH7eMz1yuiWrn9grbkJPAOfP0bqsm5vfvnzUZ0vwmm6BpXE6TLOJEoUi_8oTvO2rRi1HfZhTKZ-LOQdf-Sl7vvUXe2jmJ-JG2kn1olXCI9qXnrO_BszVXaSXw-PVboeLKbUQEHdMVZB2MD6wQjo4N9f8qWqid5wVJbG64doaHzssxjNkom-Yz9A6KasFkDpPViCqLNeZugjShH6ChR7Z03KyhiEYbx4h1tu_HkEhLKILEjK7lrzW6UNqocusownV8EcSxlsKmKmgxlK3-87Brjz68xm8UoK8o7HhLabpjjC5Js0j9DitHwjYqeFlSgkjVMJwbxXJ69vvJ9q54hUyAuwNpV-A5fA7Z2_ACm5Il6nc3ak1QR9mpJ-qek9vKeU5io9zWLvorQBV215PUIupVY6pfhPV1yEirUPTdGj0_m3wv9vlL3W42y7QDMI0k1qWOMrCFJx2GzszfTORbxGTSXYUzeE7hNz-e8Bbz2q_T_ChFSj_Hl18C-TsyEtCY81sQniqwI3eSmunvsm0o4QQK5UkXZFscNF42Bx98OvIZcQZgm4SoKAXAEEs0ILbXYC0DMQ2h66l9AQyeat4x75ty3ano4oprosXHX557YHh1YUlaHtQuGt_qYJjMgBD0YtwVwqyAc5bYvHidDGOH4K7MsYVLIb2Lou5LPYDnnxHSDsGGnT8b5sjf4FuVIZsr7zmV9zXNSx_8U8pGxXAhr2XPehr4la6UYm3jBULk5PXtBseOaZV6WIFFEcb1bMTdw8OwqmTY8nqLBPYTru6F9xzW3jYmE0-n3y0Vf8LIcVgKqjUdYa5hkfffHdYFA7hW-KSX1uCar1vHyFbbRDF02olkreHeLDso1AHqSDjcmyaFpkYQutvew_s8X92jSyYGThPl-TGjLjqTBmGDnNyfHBQmVueGr226RRjCIdrCmbAXuA_Tf2rmSml7nSSIjLITPXnZoOwsGh0srl1-PW5bd7tABLZdnUqEPBWkMOwRLAWXo1yUDCcpI3ZsGF79uDAXmkukRnHQkvpYM2DHvSrla3OELbrjcAmFFVl5BvFBzhr-lVx-ONdtrAuMKk_3ZUTXm-LvPzxYUViknT6FgROUrzi8V6VQCKUVnFg585pbzC809rjBSwmzzToi8e5v2RsRTxlHPy0bTX-6-wuvUAlHPM-ZWb3R1c4Hbze0VNLifsLKug763wuMjZx2s3rv6vvrp4lLd55CB4vDk3tyYVGupTolm4Y8RKioTx4vynm6rnhfERuCKKlDsPaJNO6D_xcyVAQroGHTtVBUH-0Om9jd2kUccnLVbjjBO4srANJixsDs3zJ6IDsVNzdxRQBZkZaCPUbkVFt_HTyTrVTprthNxAA2yD-T4aAGMmKixE88ERpyEdTNmQTreVahsunFRjye0Fa3nBqBK3IU-mZK9v5SgzpFpwSjd-G8crwzeVzOvUl0ZPNRZURupg4hQjBHYbP2Mobo_kt5FdxvifHaW-kh4x1wri1ObbQXgL8FwR00qb0OrSZzlqT3dtRvLIvGqRKKJ9_riFnGFjgFtMUphDBWeDlBQnH2bA_KFxwt-HYKY3q-ihluU2BuBWvsqOvL9dj3V_m00]--></g></svg>